<svg width="84" height="23" viewBox="0 0 84 23" fill="none" xmlns="http://www.w3.org/2000/svg">
<path d="M0.917969 11.3444C0.917969 17.5843 0.933673 22.6875 0.954612 22.6875C0.985943 22.6875 5.24888 21.9107 5.7719 21.8078L6.04387 21.7564V17.5896V13.4278H7.66543H9.28688V12.6665C9.28688 12.2497 9.30251 11.1644 9.32345 10.2487L9.35487 8.59212H7.70199H6.04387V6.766V4.93987H7.95311C9.00436 4.93987 9.86225 4.92945 9.86225 4.9141C9.86225 4.85745 10.2806 0.464157 10.3068 0.243048L10.3382 0.00128174H5.62547H0.917969V11.3444Z" fill="white"/>
<path d="M79.1505 0.668234L74.9766 1.00777V21.5026L75.1492 21.5283C75.3008 21.5541 83.3819 22.1301 83.5441 22.125C83.5911 22.125 83.6069 21.5797 83.6069 19.5787V17.0322H81.8286H80.0502V15.1803V13.3284H81.5669H83.0839V11.1163V8.90439H81.5147H79.9456V7.43806V5.97212L80.0658 5.95146C80.1286 5.93592 80.6621 5.91547 81.2531 5.89481C81.8442 5.87947 82.613 5.85369 82.9689 5.83304L83.6069 5.80235V3.06031V0.313354L83.4657 0.31847C83.3819 0.323584 81.4415 0.478008 79.1505 0.668234Z" fill="white"/>
<path d="M52.3545 1.37524C52.4069 1.88966 53.0032 9.64209 52.9928 9.65232C52.9876 9.66274 52.2187 7.80554 51.2825 5.52676C50.3514 3.2478 49.5667 1.3599 49.5459 1.3239C49.5145 1.26725 48.0708 1.52967 45.7014 2.02343L45.4766 2.06966V10.9127V19.7557H47.8042H50.1318L50.1056 19.3853C50.0531 18.696 49.8597 12.9961 49.8805 12.7699C49.8963 12.5692 50.0532 12.919 51.5387 16.4479C52.4384 18.5931 53.202 20.3679 53.2228 20.3988C53.2542 20.4297 53.9813 20.3832 55.2158 20.2804C56.2881 20.1879 57.1668 20.1055 57.1668 20.1004C57.172 20.0952 57.1458 16.3861 57.1092 11.8593C57.0725 7.33223 57.0411 3.05737 57.0411 2.35273L57.0359 1.08214H54.6821H52.3233L52.3545 1.37524Z" fill="white"/>
<path d="M16.275 5.44074C16.6568 5.84716 16.819 7.46752 16.819 10.9349C16.819 15.2046 16.547 16.9794 15.9507 16.5987C15.6944 16.429 15.5009 15.6008 15.4067 14.2271C15.3387 13.2241 15.3387 8.63032 15.4067 7.66817C15.5061 6.31004 15.6839 5.55897 15.9507 5.37897C16.0971 5.27609 16.1233 5.28121 16.275 5.44074ZM15.5374 1.39742C12.4096 1.60318 10.6888 3.70708 10.1448 7.97682C10.035 8.86166 9.98784 11.8659 10.0663 12.9154C10.3279 16.3208 11.2641 18.5329 12.9275 19.6595C13.8218 20.2614 15.1661 20.5854 16.4946 20.5083C18.0063 20.4261 19.0367 20.0041 19.9625 19.0935C20.7209 18.3478 21.1342 17.648 21.5316 16.4547C22.0861 14.788 22.3371 12.2981 22.2117 9.70538C22.0705 6.804 21.6258 4.99833 20.7105 3.61462C19.837 2.2976 18.4561 1.51053 16.8451 1.41276C16.5888 1.39742 16.3168 1.38188 16.2436 1.37165C16.1704 1.36653 15.8565 1.37676 15.5374 1.39742Z" fill="white"/>
<path d="M28.2794 6.1983C28.6508 6.37849 28.9542 6.84137 29.1165 7.47932C29.2263 7.9062 29.2105 9.25922 29.0902 9.69121C28.8652 10.504 28.4678 10.9773 27.8715 11.1573L27.7511 11.1882V8.61615V6.03896L27.9237 6.07496C28.0128 6.09031 28.1748 6.14696 28.2794 6.1983ZM22.8867 11.1265V20.4943H27.6831L27.7145 19.841C27.7355 19.4757 27.7773 18.2925 27.8087 17.2019C27.8401 16.1113 27.8819 15.1544 27.9029 15.0773C27.9289 14.9693 28.154 15.6637 28.8444 18.0096C29.3465 19.702 29.7701 21.1063 29.7911 21.127C29.8329 21.1732 34.7391 20.7926 34.7915 20.7412C34.8071 20.7206 34.2633 19.0384 33.5832 16.991L32.3489 13.2768L32.6103 13.0506C33.4786 12.3046 34.1953 10.8642 34.3993 9.43922C34.4881 8.8168 34.4305 7.27356 34.2947 6.70249C33.7714 4.46483 32.3855 2.72585 30.6176 2.07786C29.8487 1.7999 29.9113 1.80521 26.2762 1.78456L22.8867 1.7641V11.1265Z" fill="white"/>
<path d="M34.5508 3.83682V6.2289H37.2184V20.0156H39.729H42.2396V13.5338V7.05196H43.5995H44.9595V4.65989V2.2678L44.8445 2.24715C44.7346 2.22157 34.76 1.43963 34.6188 1.44474C34.5664 1.44474 34.5508 1.95915 34.5508 3.83682Z" fill="white"/>
<path d="M58.1406 11.2919V20.6289H63.3189V1.95512H60.7296H58.1406V11.2919Z" fill="white"/>
<path d="M69.2298 2.60711C66.3947 2.75642 64.0357 2.87976 63.9887 2.87976C63.8999 2.88488 63.8945 3.03418 63.8945 5.30273V7.72058H65.2284H66.5622V14.4853V21.25H69.099H71.6358V14.2024V7.15463H73.0481H74.4602V4.73677C74.4602 3.40441 74.4446 2.32423 74.4236 2.32423C74.3976 2.32935 72.0648 2.45288 69.2298 2.60711Z" fill="white"/>
</svg>
