<svg width="23" height="22" viewBox="0 0 23 22" fill="none" xmlns="http://www.w3.org/2000/svg">
<path d="M11.2578 3.32247L11.2574 3.3222L7.52868 1.94391L7.70749 1.47697C7.70738 1.47693 7.70728 1.47689 7.70717 1.47685C7.62166 1.44396 7.57779 1.36909 7.57813 1.30154C7.57846 1.23598 7.62271 1.16181 7.70839 1.13029L7.70847 1.13026C9.99182 0.289925 12.7759 0.289889 15.0608 1.1303L15.0616 1.13058C15.1474 1.16198 15.1907 1.234 15.1911 1.30153C15.1914 1.37035 15.1478 1.44305 15.0638 1.47481L15.0628 1.47519C13.8294 1.94426 12.6342 2.56576 11.5116 3.32228L11.5114 3.32247C11.4745 3.34738 11.4303 3.36066 11.3846 3.36066C11.3388 3.36066 11.2947 3.34738 11.2578 3.32247Z" stroke="#A1AFD3"/>
<path d="M22.256 10.9976C22.256 13.2044 21.537 15.3414 20.2134 17.1062C19.6913 15.4624 18.7563 13.2953 17.6825 11.2284C16.3953 8.75099 14.8626 6.32763 13.5369 5.1053L13.5367 5.10509C13.4947 5.06649 13.4761 5.01648 13.4785 4.96981L13.4786 4.96626C13.4806 4.91978 13.5034 4.87069 13.5513 4.83371C14.7425 3.91665 16.0094 3.08327 17.3139 2.35549C17.3908 2.31296 17.4817 2.3175 17.5519 2.36394C20.5025 4.3313 22.256 7.55978 22.256 10.9976ZM18.8197 17.1866C19.0178 17.5149 19.2026 17.8213 19.3718 18.0999C17.3321 20.2632 14.4473 21.4976 11.3858 21.4976C8.32355 21.4976 5.43853 20.2626 3.40651 18.1063C3.5843 17.8132 3.77924 17.4895 3.98859 17.1419C4.81224 15.7743 5.85899 14.0363 6.96268 12.3321C8.4626 10.0162 10.0251 7.83129 11.2346 6.74072L11.2346 6.74068C11.3177 6.66572 11.4528 6.66691 11.5332 6.73981L11.5341 6.74063C12.7425 7.83078 14.3072 10.0143 15.8096 12.3285C16.929 14.0527 17.9905 15.8122 18.8197 17.1866Z" stroke="#A1AFD3"/>
</svg>
