<svg width="48" height="48" viewBox="0 0 48 48" fill="none" xmlns="http://www.w3.org/2000/svg">
<path opacity="0.4" d="M49 1H17.5L1 17V49" stroke="#A1AFD3"/>
<path opacity="0.2" d="M5 18.3333L18.75 5H45V29C45 37.8366 37.8366 45 29 45H5V18.3333Z" fill="#A1AFD3"/>
<path d="M24.4 27.38H26.62C30.08 27.38 31.88 25.64 31.88 22.94C31.88 20.34 30.3 18.34 26.36 18.34C21.54 18.34 20.14 21.22 20.02 23.56H23.58C23.66 22.04 24.44 21.14 26.16 21.14C27.58 21.14 28.28 21.96 28.28 23.06C28.28 24.24 27.62 25.24 25.52 25.24H24.4V27.38ZM24.44 32H27.68V29H24.44V32Z" fill="#A1AFD3"/>
</svg>
