<svg width="234" height="37" viewBox="0 0 234 37" fill="none" xmlns="http://www.w3.org/2000/svg">
<path d="M25.2641 10.6361H15.6161C15.4361 10.6361 15.4001 10.4921 15.4721 10.3121L19.7921 1.06007C20.0081 0.62807 19.6481 0.340069 19.1801 0.520071L11.9801 3.43607C11.7281 3.54407 11.5121 3.76007 11.4041 3.97607L0.568068 27.1961C0.388068 27.6281 0.712068 27.9161 1.18007 27.7361L8.70407 24.6761C8.74007 24.6761 8.81207 24.6401 8.84807 24.6401H18.7121C19.0361 24.6401 19.4321 24.3881 19.5761 24.0641L25.5881 11.2121C25.7321 10.8881 25.5881 10.6361 25.2641 10.6361ZM17.4521 13.5521L13.6361 21.7241C13.5641 21.9041 13.3841 22.0121 13.2401 22.0121H10.2881C10.1441 22.0121 10.0721 21.9041 10.1441 21.7241L13.9601 13.5521C14.0321 13.3721 14.2121 13.2641 14.3921 13.2641H17.3081C17.4881 13.2641 17.5601 13.3721 17.4521 13.5521Z" fill="#BE1338"/>
<path d="M44.3114 10.6361H27.9674C27.6434 10.6361 27.2474 10.8881 27.1034 11.2121L25.5914 14.4161C25.4474 14.7401 25.5914 14.9921 25.9154 14.9921H32.0354C32.2154 14.9921 32.3954 14.8841 32.4674 14.7041L33.0074 13.5521C33.0794 13.3721 33.2954 13.2641 33.4394 13.2641H36.3554C36.5354 13.2641 36.6074 13.3721 36.5354 13.5521L35.1674 16.4681C35.0954 16.6121 34.8794 16.7561 34.7354 16.7561H25.0874C24.7634 16.7561 24.3674 17.0081 24.2234 17.3321L21.0914 24.0641C20.9474 24.3881 21.0914 24.6401 21.4154 24.6401H37.7594C38.0834 24.6401 38.4794 24.3881 38.6234 24.0641L44.6354 11.2121C44.7794 10.8881 44.6354 10.6361 44.3114 10.6361ZM33.6554 19.6721L32.7194 21.7241C32.6474 21.9041 32.4314 22.0121 32.2874 22.0121H29.3714C29.1914 22.0121 29.1194 21.9041 29.1914 21.7241L30.1634 19.6721C30.2354 19.5281 30.4154 19.3841 30.5954 19.3841H33.5114C33.6554 19.3841 33.7274 19.5281 33.6554 19.6721Z" fill="#BE1338"/>
<path d="M63.3661 10.6361H57.5341C57.2101 10.6361 56.8141 10.8881 56.6701 11.2121L53.8981 17.1521C53.7541 17.4401 53.2861 17.5481 53.2861 17.2601L53.4301 10.9601C53.4301 10.7441 53.2861 10.6361 53.0701 10.6361H47.0221C46.6981 10.6361 46.3021 10.8881 46.1581 11.2121L40.1461 24.0641C40.0021 24.3881 40.1461 24.6401 40.4701 24.6401H46.3021C46.6261 24.6401 47.0221 24.3881 47.1661 24.0641L49.9381 18.1241C50.0821 17.8361 50.5501 17.7281 50.5501 18.0161L50.4061 24.3161C50.4061 24.4961 50.5501 24.6401 50.7661 24.6401H56.8141C57.1381 24.6401 57.5341 24.3881 57.6781 24.0641L63.6901 11.2121C63.8341 10.8881 63.6901 10.6361 63.3661 10.6361Z" fill="#BE1338"/>
<path d="M82.4208 10.6361H66.0768C65.7528 10.6361 65.3568 10.8881 65.2128 11.2121L59.2008 24.0641C59.0568 24.3881 59.2008 24.6401 59.5248 24.6401H69.1728C69.3168 24.6401 69.3888 24.7841 69.3168 24.9281L64.1688 35.9801C63.9528 36.4121 64.3128 36.7001 64.7808 36.4841L71.9808 33.5681C72.2328 33.4601 72.4488 33.2801 72.5568 33.0641L79.8648 17.3321C80.0088 17.0081 79.9008 16.7561 79.5768 16.7561H73.7088C73.3848 16.7561 73.0248 17.0081 72.8448 17.3321L70.8288 21.7241C70.7568 21.9041 70.5408 22.0121 70.3968 22.0121H67.4808C67.3008 22.0121 67.2288 21.9041 67.3008 21.7241L71.1168 13.5521C71.1888 13.3721 71.4048 13.2641 71.5488 13.2641H74.4648C74.6448 13.2641 74.7168 13.3721 74.6448 13.5521L74.2128 14.4161C74.0688 14.7401 74.2128 14.9921 74.5368 14.9921H80.3688C80.6928 14.9921 81.0888 14.7401 81.2328 14.4161L82.7448 11.2121C82.8888 10.8881 82.7448 10.6361 82.4208 10.6361Z" fill="#BE1338"/>
<path d="M101.476 10.6361H85.1315C84.8075 10.6361 84.4115 10.8881 84.2675 11.2121L78.2555 24.0641C78.1115 24.3881 78.2555 24.6401 78.5795 24.6401H94.9235C95.2475 24.6401 95.6435 24.3881 95.7875 24.0641L97.2995 20.8601C97.4435 20.5361 97.2995 20.2481 96.9755 20.2481H90.8555C90.6755 20.2481 90.4955 20.3921 90.4235 20.5721L89.8835 21.7241C89.8115 21.9041 89.5955 22.0121 89.4515 22.0121H86.5355C86.3555 22.0121 86.2835 21.9041 86.3555 21.7241L87.7235 18.8081C87.7955 18.6281 88.0115 18.5201 88.1555 18.5201H97.8035C98.1275 18.5201 98.5235 18.2321 98.6675 17.9441L101.8 11.2121C101.944 10.8881 101.8 10.6361 101.476 10.6361ZM93.6995 13.5521L92.7275 15.6041C92.6555 15.7481 92.4755 15.8921 92.2955 15.8921H89.3795C89.2355 15.8921 89.1635 15.7481 89.2355 15.6041L90.1715 13.5521C90.2435 13.3721 90.4595 13.2641 90.6035 13.2641H93.5195C93.6995 13.2641 93.7715 13.3721 93.6995 13.5521Z" fill="#BE1338"/>
<path d="M120.53 10.6361H104.186C103.862 10.6361 103.466 10.8881 103.322 11.2121L97.3102 24.0641C97.1662 24.3881 97.3102 24.6401 97.6342 24.6401H103.466C103.79 24.6401 104.186 24.3881 104.33 24.0641L109.226 13.5521C109.298 13.3721 109.514 13.2641 109.658 13.2641H112.574C112.754 13.2641 112.826 13.3721 112.754 13.5521L112.322 14.4161C112.178 14.7401 112.322 14.9921 112.646 14.9921H118.478C118.802 14.9921 119.198 14.7401 119.342 14.4161L120.854 11.2121C120.998 10.8881 120.854 10.6361 120.53 10.6361Z" fill="#BE1338"/>
<path d="M145.878 10.6361H129.534C129.21 10.6361 128.814 10.8881 128.67 11.2121L122.658 24.0641C122.514 24.3881 122.658 24.6401 122.982 24.6401H132.63C132.774 24.6401 132.846 24.7841 132.774 24.9281L127.626 35.9801C127.41 36.4121 127.77 36.7001 128.238 36.4841L135.438 33.5681C135.69 33.4601 135.906 33.2801 136.014 33.0641L143.322 17.3321C143.466 17.0081 143.358 16.7561 143.034 16.7561H137.166C136.842 16.7561 136.482 17.0081 136.302 17.3321L134.286 21.7241C134.214 21.9041 133.998 22.0121 133.854 22.0121H130.938C130.758 22.0121 130.686 21.9041 130.758 21.7241L134.574 13.5521C134.646 13.3721 134.862 13.2641 135.006 13.2641H137.922C138.102 13.2641 138.174 13.3721 138.102 13.5521L137.67 14.4161C137.526 14.7401 137.67 14.9921 137.994 14.9921H143.826C144.15 14.9921 144.546 14.7401 144.69 14.4161L146.202 11.2121C146.346 10.8881 146.202 10.6361 145.878 10.6361Z" fill="#BE1338"/>
<path d="M164.933 10.6361H148.589C148.265 10.6361 147.869 10.8881 147.725 11.2121L146.213 14.4161C146.069 14.7401 146.213 14.9921 146.537 14.9921H152.657C152.837 14.9921 153.017 14.8841 153.089 14.7041L153.629 13.5521C153.701 13.3721 153.917 13.2641 154.061 13.2641H156.977C157.157 13.2641 157.229 13.3721 157.157 13.5521L155.789 16.4681C155.717 16.6121 155.501 16.7561 155.357 16.7561H145.709C145.385 16.7561 144.989 17.0081 144.845 17.3321L141.713 24.0641C141.569 24.3881 141.713 24.6401 142.037 24.6401H158.381C158.705 24.6401 159.101 24.3881 159.245 24.0641L165.257 11.2121C165.401 10.8881 165.257 10.6361 164.933 10.6361ZM154.277 19.6721L153.341 21.7241C153.269 21.9041 153.053 22.0121 152.909 22.0121H149.993C149.813 22.0121 149.741 21.9041 149.813 21.7241L150.785 19.6721C150.857 19.5281 151.037 19.3841 151.217 19.3841H154.133C154.277 19.3841 154.349 19.5281 154.277 19.6721Z" fill="#BE1338"/>
<path d="M194.499 10.6361H188.451C188.235 10.6361 187.947 10.7441 187.767 10.9601L182.043 17.2601C181.791 17.5481 181.395 17.4401 181.539 17.1521L184.311 11.2121C184.455 10.8881 184.311 10.6361 183.987 10.6361H177.939C177.723 10.6361 177.435 10.7441 177.255 10.9601L171.531 17.2601C171.243 17.5481 170.883 17.4401 171.027 17.1521L173.799 11.2121C173.943 10.8881 173.799 10.6361 173.475 10.6361H167.643C167.319 10.6361 166.923 10.8881 166.779 11.2121L160.767 24.0641C160.623 24.3881 160.767 24.6401 161.091 24.6401H167.139C167.355 24.6401 167.643 24.4961 167.823 24.3161L173.547 18.0161C173.799 17.7281 174.195 17.8361 174.051 18.1241L171.279 24.0641C171.135 24.3881 171.279 24.6401 171.603 24.6401H177.651C177.867 24.6401 178.155 24.4961 178.335 24.3161L184.059 18.0161C184.347 17.7281 184.707 17.8361 184.563 18.1241L181.827 24.0641C181.647 24.3881 181.791 24.6401 182.115 24.6401H187.983C188.307 24.6401 188.667 24.3881 188.811 24.0641L194.823 11.2121C194.967 10.8881 194.823 10.6361 194.499 10.6361Z" fill="#BE1338"/>
<path d="M213.589 10.6361H197.245C196.921 10.6361 196.525 10.8881 196.381 11.2121L190.369 24.0641C190.225 24.3881 190.369 24.6401 190.693 24.6401H207.037C207.361 24.6401 207.757 24.3881 207.901 24.0641L209.413 20.8601C209.557 20.5361 209.413 20.2481 209.089 20.2481H202.969C202.789 20.2481 202.609 20.3921 202.537 20.5721L201.997 21.7241C201.925 21.9041 201.709 22.0121 201.565 22.0121H198.649C198.469 22.0121 198.397 21.9041 198.469 21.7241L199.837 18.8081C199.909 18.6281 200.125 18.5201 200.269 18.5201H209.917C210.241 18.5201 210.637 18.2321 210.781 17.9441L213.913 11.2121C214.057 10.8881 213.913 10.6361 213.589 10.6361ZM205.813 13.5521L204.841 15.6041C204.769 15.7481 204.589 15.8921 204.409 15.8921H201.493C201.349 15.8921 201.277 15.7481 201.349 15.6041L202.285 13.5521C202.357 13.3721 202.573 13.2641 202.717 13.2641H205.633C205.813 13.2641 205.885 13.3721 205.813 13.5521Z" fill="#BE1338"/>
<path d="M232.643 10.6361H216.299C215.975 10.6361 215.579 10.8881 215.435 11.2121L212.087 18.3761C211.943 18.7001 212.087 18.9521 212.411 18.9521H222.059C222.203 18.9521 222.275 19.0961 222.203 19.2401L221.051 21.7241C220.979 21.9041 220.763 22.0121 220.619 22.0121H217.703C217.523 22.0121 217.451 21.9041 217.523 21.7241L217.955 20.8601C218.099 20.5361 217.955 20.2481 217.631 20.2481H211.799C211.475 20.2481 211.079 20.5361 210.935 20.8601L209.423 24.0641C209.279 24.3881 209.423 24.6401 209.747 24.6401H226.091C226.415 24.6401 226.811 24.3881 226.955 24.0641L230.303 16.9001C230.447 16.5761 230.303 16.3241 229.979 16.3241H220.331C220.187 16.3241 220.115 16.1801 220.187 16.0361L221.339 13.5521C221.411 13.3721 221.627 13.2641 221.771 13.2641H224.687C224.867 13.2641 224.939 13.3721 224.867 13.5521L224.435 14.4161C224.291 14.7401 224.435 14.9921 224.759 14.9921H230.591C230.915 14.9921 231.311 14.7401 231.455 14.4161L232.967 11.2121C233.111 10.8881 232.967 10.6361 232.643 10.6361Z" fill="#BE1338"/>
</svg>
