<svg width="37" height="40" viewBox="0 0 37 40" fill="none" xmlns="http://www.w3.org/2000/svg">
<path d="M35.6434 14.8882H21.747C21.4877 14.8882 21.4359 14.6774 21.5396 14.4139L27.7619 0.870257C28.073 0.237868 27.5544 -0.183725 26.8804 0.0797728L16.5099 4.34839C16.1469 4.50649 15.8358 4.82268 15.6803 5.13888L0.0727226 39.1297C-0.186539 39.7621 0.280132 40.1837 0.954212 39.9202L11.7913 35.4408C11.8432 35.4408 11.9469 35.3881 11.9988 35.3881H26.2063C26.673 35.3881 27.2433 35.0192 27.4507 34.5449L36.1101 15.7314C36.3175 15.2571 36.1101 14.8882 35.6434 14.8882ZM24.3915 19.1568L18.8951 31.1195C18.7914 31.383 18.5321 31.5411 18.3247 31.5411H14.0728C13.8654 31.5411 13.7617 31.383 13.8654 31.1195L19.3618 19.1568C19.4655 18.8933 19.7247 18.7352 19.984 18.7352H24.184C24.4433 18.7352 24.547 18.8933 24.3915 19.1568Z" fill="#BE1338"/>
</svg>
