<svg width="48" height="48" viewBox="0 0 48 48" fill="none" xmlns="http://www.w3.org/2000/svg">
<g clip-path="url(#clip0)">
<circle cx="21.079" cy="27.102" r="13.3358" stroke="#A1AFD3" stroke-width="1.72075"/>
<path opacity="0.5" d="M32.0303 19.7888C32.931 19.7888 33.8018 19.9201 34.6252 20.1648C38.4805 21.3109 41.2978 24.9459 41.2978 29.253C41.2978 34.4799 37.1486 38.7171 32.0303 38.7171C30.7388 38.7171 29.5091 38.4474 28.3921 37.96" stroke="#A1AFD3" stroke-width="1.72075"/>
<path d="M25.811 13.7661V10.3246C25.811 9.84941 26.1962 9.4642 26.6714 9.4642H31.8337C32.3089 9.4642 32.6941 9.079 32.6941 8.60382V7.31326C32.6941 6.83808 33.0793 6.45288 33.5544 6.45288H38.2865" stroke="#A1AFD3" stroke-width="1.72075" stroke-linecap="round"/>
<path d="M33.1245 12.4756V15.0567" stroke="#A1AFD3" stroke-width="1.72075" stroke-linecap="round"/>
<path d="M38.7168 17.2075L36.1357 17.2075" stroke="#A1AFD3" stroke-width="1.72075" stroke-linecap="round"/>
<path d="M36.9683 12.9058L35.2754 14.8542" stroke="#A1AFD3" stroke-width="1.72075" stroke-linecap="round"/>
<path fill-rule="evenodd" clip-rule="evenodd" d="M27.8685 16.6792C26.9256 16.5407 25.7623 16.1817 24.5637 15.6236C23.3652 15.0654 22.3418 14.4061 21.6289 13.7735L21.2766 14.5301C20.9542 15.2248 21.0358 15.8064 21.3806 16.3441C21.7567 16.9307 22.4767 17.499 23.4741 17.9634C24.4715 18.4279 25.3698 18.6133 26.0607 18.5236C26.6953 18.4413 27.1935 18.1287 27.5177 17.4325L27.8685 16.6792ZM28.8765 18.5397C28.2748 19.5481 27.3483 20.0918 26.2821 20.2301C25.1451 20.3776 23.904 20.0619 22.7476 19.5233C21.5912 18.9848 20.5509 18.2381 19.9321 17.2729C19.3517 16.3678 19.1717 15.3088 19.5562 14.1994L19.5366 14.1902L19.7182 13.8003L20.6105 11.8844L20.6263 11.8504L20.6274 11.8509C21.0755 11.0303 23.4661 11.316 26.0166 12.5038C28.5671 13.6915 30.3243 15.3374 29.9846 16.2085L29.9857 16.209L28.896 18.5489L28.8765 18.5397Z" fill="#A1AFD3"/>
</g>
<defs>
<clipPath id="clip0">
<rect width="48" height="48" fill="white"/>
</clipPath>
</defs>
</svg>
