<svg width="37" height="37" viewBox="0 0 37 37" fill="none" xmlns="http://www.w3.org/2000/svg">
<circle cx="15.0792" cy="22.1019" r="13.3358" stroke="#BE1338" stroke-width="1.72075"/>
<path opacity="0.5" d="M26.0306 14.7887C26.9314 14.7887 27.8021 14.9199 28.6255 15.1647C32.4808 16.3107 35.2981 19.9458 35.2981 24.2528C35.2981 29.4797 31.1489 33.717 26.0306 33.717C24.7392 33.717 23.5094 33.4472 22.3925 32.9598" stroke="#BE1338" stroke-width="1.72075"/>
<path d="M19.8113 8.76603V5.32452C19.8113 4.84935 20.1965 4.46414 20.6717 4.46414H25.834C26.3091 4.46414 26.6943 4.07894 26.6943 3.60376V2.3132C26.6943 1.83802 27.0795 1.45282 27.5547 1.45282H32.2868" stroke="#BE1338" stroke-width="1.72075" stroke-linecap="round"/>
<path d="M27.1245 7.47546V10.0566" stroke="#BE1338" stroke-width="1.72075" stroke-linecap="round"/>
<path d="M32.717 12.2075L30.1358 12.2075" stroke="#BE1338" stroke-width="1.72075" stroke-linecap="round"/>
<path d="M30.9683 7.90564L29.2755 9.85411" stroke="#BE1338" stroke-width="1.72075" stroke-linecap="round"/>
<path fill-rule="evenodd" clip-rule="evenodd" d="M21.8685 11.6793C20.9255 11.5408 19.7623 11.1818 18.5637 10.6236C17.3652 10.0655 16.3418 9.40613 15.6289 8.77356L15.2765 9.53014C14.9542 10.2249 15.0358 10.8064 15.3806 11.3442C15.7567 11.9308 16.4767 12.499 17.4741 12.9635C18.4714 13.428 19.3697 13.6133 20.0607 13.5237C20.6952 13.4414 21.1935 13.1287 21.5177 12.4325L21.8685 11.6793ZM22.8764 13.5398C22.2747 14.5481 21.3483 15.0918 20.2821 15.2301C19.1451 15.3776 17.904 15.0619 16.7476 14.5234C15.5912 13.9849 14.5508 13.2381 13.932 12.273C13.3517 11.3679 13.1717 10.3089 13.5562 9.19943L13.5366 9.19031L13.7182 8.80033L14.6104 6.88442L14.6263 6.85046L14.6274 6.85097C15.0754 6.03038 17.4661 6.31609 20.0166 7.50383C22.567 8.69157 24.3243 10.3375 23.9846 11.2086L23.9857 11.2091L22.896 13.5489L22.8764 13.5398Z" fill="#BE1338"/>
</svg>
