<svg width="62" height="62" viewBox="0 0 62 62" fill="none" xmlns="http://www.w3.org/2000/svg">
<path d="M6.32373 23.644C6.32373 19.666 9.54855 16.4412 13.5266 16.4412C16.1114 16.4412 18.498 15.0562 19.7804 12.812L20.742 11.1292C21.2918 10.167 21.5668 9.68582 21.9109 9.29651C22.6344 8.47794 23.6034 7.91557 24.6731 7.6935C25.1819 7.58789 25.736 7.58789 26.8443 7.58789H33.8639C34.9722 7.58789 35.5264 7.58789 36.0351 7.6935C37.1048 7.91557 38.0739 8.47794 38.7974 9.29651C39.1415 9.68582 39.4164 10.1669 39.9663 11.1292L40.9278 12.812C42.2103 15.0562 44.5969 16.4412 47.1817 16.4412C51.1597 16.4412 54.3845 19.666 54.3845 23.644V39.7127C54.3845 43.9627 54.3845 46.0877 53.5574 47.711C52.8299 49.1389 51.669 50.2998 50.2411 51.0273C48.6178 51.8544 46.4928 51.8544 42.2428 51.8544H18.4654C14.2154 51.8544 12.0904 51.8544 10.4671 51.0273C9.03927 50.2998 7.87837 49.1389 7.15083 47.711C6.32373 46.0877 6.32373 43.9627 6.32373 39.7127V23.644Z" fill="#A1AFD3"/>
<circle cx="30.3544" cy="34.1493" r="10.1181" stroke="#010432" stroke-width="5.16667"/>
<circle cx="46.1637" cy="24.6628" r="1.89714" stroke="#010431" stroke-width="1.9375"/>
</svg>
