<svg width="101" height="77" viewBox="0 0 101 77" fill="none" xmlns="http://www.w3.org/2000/svg">
<path opacity="0.2" d="M0 3.80791C0 2.11046 1.57187 0.849548 3.2289 1.21778L35.6468 8.42176V25.255L5.12104 11.688C2.00693 10.3039 0 7.21573 0 3.80791Z" fill="#E7E7E7"/>
<path opacity="0.2" d="M7.91797 15.6907C7.91797 13.9933 9.48984 12.7324 11.1469 13.1006L43.5648 20.3046V37.1378L13.039 23.5708C9.9249 22.1867 7.91797 19.0985 7.91797 15.6907Z" fill="#E7E7E7"/>
<path opacity="0.2" d="M15.8398 27.5721C15.8398 25.8746 17.4117 24.6137 19.0687 24.9819L51.4867 32.1859V49.0191L20.9609 35.4521C17.8468 34.0681 15.8398 30.9799 15.8398 27.5721Z" fill="#E7E7E7"/>
<path opacity="0.2" d="M101 3.80767C101 2.11021 99.4281 0.849304 97.7711 1.21753L65.3532 8.42152V25.2547L95.879 11.6877C98.9931 10.3037 101 7.21549 101 3.80767Z" fill="#E7E7E7"/>
<path opacity="0.2" d="M93.082 15.6907C93.082 13.9933 91.5102 12.7324 89.8531 13.1006L57.4352 20.3046V37.1378L87.961 23.5708C91.0751 22.1867 93.082 19.0985 93.082 15.6907Z" fill="#E7E7E7"/>
<path opacity="0.2" d="M85.1602 27.5723C85.1602 25.8749 83.5883 24.614 81.9313 24.9822L49.5133 32.1862V49.0194L80.0391 35.4524C83.1532 34.0683 85.1602 30.9801 85.1602 27.5723Z" fill="#E7E7E7"/>
<path d="M26.7422 3.22302C26.7422 1.71914 27.9613 0.5 29.4652 0.5H72.0434C73.5472 0.5 74.7664 1.71914 74.7664 3.22302V30.9483C74.7664 44.2099 64.0158 54.9604 50.7543 54.9604C37.4928 54.9604 26.7422 44.2099 26.7422 30.9483V3.22302Z" fill="#BE1338"/>
<path d="M50.0787 21.9248C50.4269 21.1219 51.5655 21.1219 51.9136 21.9248L52.7672 23.8932C53.057 24.5615 53.6872 25.0194 54.4124 25.0885L56.5482 25.292C57.4194 25.375 57.7712 26.4579 57.1152 27.0371L55.5069 28.4572C54.9609 28.9393 54.7201 29.6802 54.8785 30.3912L55.345 32.4854C55.5352 33.3396 54.6141 34.0088 53.8605 33.5639L52.0129 32.4732C51.3857 32.1028 50.6066 32.1028 49.9794 32.4732L48.1318 33.5639C47.3782 34.0088 46.4571 33.3396 46.6474 32.4854L47.1138 30.3912C47.2722 29.6802 47.0314 28.9393 46.4854 28.4572L44.8771 27.0371C44.2211 26.4579 44.573 25.375 45.4441 25.292L47.5799 25.0885C48.3051 25.0194 48.9353 24.5615 49.2251 23.8932L50.0787 21.9248Z" fill="white"/>
<ellipse cx="50.747" cy="71.0505" rx="12.1298" ry="5.19849" fill="#BE1338"/>
</svg>
