<svg width="41" height="40" viewBox="0 0 41 40" fill="none" xmlns="http://www.w3.org/2000/svg">
<path d="M40.3021 0.839961C40.119 0.219259 39.4686 -0.135394 38.849 0.0481444L33.1628 1.73195C30.8067 2.40945 29.4272 4.80537 30.0219 7.18902C30.207 7.93083 29.9867 8.72757 29.4471 9.26826C29.1415 9.57455 28.7034 10.0136 28.3743 10.3434C24.0119 6.79257 17.5676 7.02861 13.4758 11.129L3.6941 20.9311C-0.653242 25.2876 -0.653242 32.376 3.6941 36.7324C8.04128 41.0887 15.1151 41.089 19.4626 36.7324L29.2443 26.9304C33.3487 22.8174 33.5601 16.3586 30.0283 12.0009L31.1037 10.9233C32.2191 9.8038 32.6741 8.15539 32.2912 6.62052C32.0138 5.50866 32.6217 4.33234 33.8208 3.98136L39.512 2.29616C40.1314 2.1127 40.4852 1.46074 40.3021 0.839961ZM27.5902 25.273L17.8086 35.075C14.3732 38.5175 8.78342 38.5175 5.34805 35.075C1.91275 31.6325 1.91275 26.0311 5.34805 22.5886L15.1298 12.7865C18.3032 9.60651 23.2689 9.36835 26.7088 12.0124L24.5125 14.2132C23.1421 13.5335 21.4327 13.7635 20.293 14.9056L18.5287 16.6736C17.389 17.8156 17.1594 19.5286 17.8378 20.9019L16.7643 21.9776C16.3076 22.4353 16.3076 23.1773 16.7643 23.635C17.221 24.0927 17.9616 24.0928 18.4184 23.635L19.4918 22.5594C20.8823 23.2491 22.5855 22.9952 23.7114 21.867L25.4756 20.0991C26.6154 18.957 26.845 17.244 26.1665 15.8707L28.3627 13.67C30.9883 17.1009 30.7788 22.0777 27.5902 25.273ZM23.8216 18.4415L22.0573 20.2095C21.5405 20.7273 20.6996 20.7273 20.1827 20.2095C19.6676 19.6932 19.6619 18.853 20.1827 18.3309L21.947 16.563C22.4639 16.0451 23.3047 16.0451 23.8216 16.563C24.3384 17.0809 24.3384 17.9236 23.8216 18.4415Z" fill="#A1AFD3"/>
</svg>
