<svg width="41" height="40" viewBox="0 0 41 40" fill="none" xmlns="http://www.w3.org/2000/svg">
<path d="M6.84375 22.1919V14.4555C6.84375 13.7341 7.23227 13.0686 7.86049 12.7139L13.8438 9.33589L14.4387 9M34.8438 22.1919V14.4555C34.8438 13.7341 34.4552 13.0686 33.827 12.7139L27.8438 9.33589L27.2488 9M14.8438 33.6126L19.8605 36.4449C20.4707 36.7894 21.2168 36.7894 21.827 36.4449L27.2488 33.3839" stroke="#BE1338" stroke-width="2"/>
<path d="M20.3438 3.44338C20.6532 3.26474 21.0343 3.26474 21.3438 3.44338L27.138 6.78867C27.4474 6.96731 27.638 7.29743 27.638 7.6547V14.3453C27.638 14.7026 27.4474 15.0327 27.138 15.2113L21.3438 18.5566C21.0343 18.7353 20.6532 18.7353 20.3438 18.5566L14.5495 15.2113C14.2401 15.0327 14.0495 14.7026 14.0495 14.3453V7.6547C14.0495 7.29743 14.2401 6.96731 14.5495 6.78868L20.3438 3.44338Z" stroke="#BE1338" stroke-width="2"/>
<path d="M20.8438 19V11L14.3438 7.75" stroke="#BE1338" stroke-width="2"/>
<path d="M20.3438 11L26.8438 7.75" stroke="#BE1338" stroke-width="2"/>
<path d="M11.3438 19.4434C11.6532 19.2647 12.0343 19.2647 12.3438 19.4434L18.138 22.7887C18.4474 22.9673 18.638 23.2974 18.638 23.6547V30.3453C18.638 30.7026 18.4474 31.0327 18.138 31.2113L12.3438 34.5566C12.0343 34.7353 11.6532 34.7353 11.3438 34.5566L5.54952 31.2113C5.24012 31.0327 5.04952 30.7026 5.04952 30.3453V23.6547C5.04952 23.2974 5.24012 22.9673 5.54952 22.7887L11.3438 19.4434Z" stroke="#BE1338" stroke-width="2"/>
<path d="M11.8438 35V27L5.34375 23.75" stroke="#BE1338" stroke-width="2"/>
<path d="M11.3438 27L17.8438 23.75" stroke="#BE1338" stroke-width="2"/>
<path d="M29.3438 19.4434C29.6532 19.2647 30.0343 19.2647 30.3438 19.4434L36.138 22.7887C36.4474 22.9673 36.638 23.2974 36.638 23.6547V30.3453C36.638 30.7026 36.4474 31.0327 36.138 31.2113L30.3438 34.5566C30.0343 34.7353 29.6532 34.7353 29.3438 34.5566L23.5495 31.2113C23.2401 31.0327 23.0495 30.7026 23.0495 30.3453V23.6547C23.0495 23.2974 23.2401 22.9673 23.5495 22.7887L29.3438 19.4434Z" stroke="#BE1338" stroke-width="2"/>
<path d="M29.8438 35V27L23.3438 23.75" stroke="#BE1338" stroke-width="2"/>
<path d="M29.3438 27L35.8438 23.75" stroke="#BE1338" stroke-width="2"/>
</svg>
