<svg width="71" height="93" viewBox="0 0 71 93" fill="none" xmlns="http://www.w3.org/2000/svg">
<path d="M27.5305 0H29.9968C31.7128 0.674102 33.3626 1.6079 34.8579 2.66602C35.3379 4.69109 36.1766 6.846 35.451 8.91804C34.833 9.48992 33.9944 9.72475 33.2495 10.0756C33.3378 10.874 33.4674 11.6669 33.5916 12.4598C34.9986 12.341 36.3642 11.9708 37.7463 11.7029C37.9367 10.8796 37.9836 9.98445 38.505 9.28548C38.6181 9.84355 38.7091 10.4071 38.7809 10.9735C39.5202 11.4045 40.2375 12.015 41.1562 11.9183C46.9497 11.9239 52.7459 11.9018 58.5366 11.9211C59.1739 11.8714 59.4774 12.5482 59.916 12.8963C59.9298 11.6642 59.9243 10.432 59.9795 9.19984C60.1505 9.20536 60.4926 9.21089 60.6637 9.21365C60.6995 10.2966 60.5836 11.4072 60.8844 12.4626C61.2071 12.5372 61.5382 12.5593 61.872 12.6007C61.8886 13.0234 61.9023 13.4461 61.9272 13.8716C63.7066 13.9241 65.5053 14.0429 67.271 13.739C68.4573 13.5594 69.6601 13.681 70.8574 13.6837C70.8767 14.1064 70.9154 14.5263 70.9899 14.9463C69.5111 15.054 68.0158 15.1535 66.5454 14.9076C64.1894 14.6203 61.8362 15.1203 59.4829 14.9877C59.4029 15.3082 59.3284 15.6287 59.2539 15.9491C56.9917 15.974 54.7295 15.9353 52.47 15.9464C51.7196 15.927 50.8948 16.09 50.4202 16.7227C49.7554 17.5543 48.9498 18.2643 48.3098 19.1152C48.1028 20.6761 48.7125 22.1901 49.0629 23.6875C48.5305 23.8809 47.9953 24.0632 47.4711 24.2621C46.9331 25.9502 47.1455 28.1106 45.6034 29.2931C44.7509 29.934 43.9978 30.7324 43.0239 31.1883C42.3149 31.5087 41.5534 31.1745 40.8417 31.0695C38.185 30.6661 35.9835 29.0306 33.6109 27.9034C33.4564 28.5471 33.2826 29.1825 33.1088 29.8207C33.8288 30.2876 34.7585 30.6855 34.9958 31.6027C35.36 32.9454 35.0565 34.3543 35.0041 35.7219C34.891 36.9762 34.8551 38.2387 34.7365 39.493C34.6206 40.7113 33.9171 41.7584 33.1943 42.706C32.5184 42.5403 31.8563 42.3441 31.1887 42.1673C30.4686 43.7144 31.0673 45.6373 32.2535 46.7893C35.3379 50.1488 37.0097 54.4724 38.5767 58.6856C38.8443 59.5752 39.7575 60.1028 39.912 61.0394C40.1713 62.034 40.5382 63.0313 40.4527 64.0756C40.3341 65.9073 40.2016 67.739 40.0168 69.5651C39.8899 70.905 39.3933 72.2422 39.6857 73.5959C39.9037 74.6982 40.0389 75.8641 39.6361 76.9443C39.0926 78.3008 39.0981 79.7844 39.0898 81.2238C39.1147 82.1714 39.1671 83.2129 39.8237 83.9644C40.6017 84.9231 41.3603 85.9176 42.2901 86.7354C43.4405 87.4896 45.024 87.4951 45.9703 88.5864C46.2682 89.1832 46.0558 89.8794 46.0475 90.5175C43.0598 90.9706 39.934 91.0038 37.0318 90.07C35.3931 89.5368 33.586 90.4512 32.0191 89.5506C32.1046 87.6747 32.557 85.843 33.2191 84.0915C33.4922 82.7847 33.1943 81.431 33.1667 80.1076C33.1474 78.9639 32.5598 77.9527 32.3336 76.8532C31.6852 74.4938 31.5004 72.0378 31.39 69.601C31.2466 68.4048 32.2591 67.5014 32.3005 66.3327C32.5129 65.2967 32.3556 64.2331 31.7156 63.3766C30.6038 63.3435 29.1058 63.6363 28.4823 62.4401C27.1801 60.5117 25.9138 58.5557 24.6144 56.6273C24.162 55.7958 23.075 55.9919 22.3301 55.6272C21.6653 55.0139 21.3342 54.1464 20.9204 53.3646C20.6776 54.2597 20.3466 55.1576 19.6845 55.8344C18.6416 56.8843 18.2664 58.343 17.7257 59.6746C17.345 60.636 17.0029 61.6223 16.865 62.6501C16.7188 63.4264 16.6856 64.3353 15.9904 64.8437C14.9697 65.6172 14.6055 66.9212 13.673 67.7721C12.9778 68.4352 12.553 69.3386 12.324 70.2586C12.2495 71.0901 12.4895 71.9328 12.2799 72.7533C11.9019 74.2562 11.0742 75.5823 10.4673 76.9941C10.0369 77.9859 9.81347 79.055 9.34171 80.0303C9.02721 80.7127 8.22166 80.9337 7.78025 81.5056C6.50017 83.7102 6.09185 86.368 6.54981 88.8682C6.91673 89.86 7.18433 90.8988 6.95811 91.9652C6.17185 92.0729 5.39112 92.2028 4.6021 92.2746H2.16332C1.5288 92.142 0.874976 92.0426 0.295628 91.7442C-0.137503 90.3877 -0.0657896 88.9014 0.323201 87.5421C0.894273 85.4977 1.41293 83.4395 1.92882 81.384C2.27643 80.3756 1.45155 79.4722 1.52604 78.4638C1.44327 76.9775 2.36196 75.7508 3.02683 74.5104C3.65032 73.4081 3.42962 72.0792 3.86275 70.9161C4.84213 68.391 6.69329 66.3355 7.79681 63.8712C8.13614 62.8683 7.7692 61.8019 7.83541 60.7686C7.91817 58.8099 8.30442 56.876 8.641 54.9476C8.75411 54.2044 8.99412 53.4198 8.70721 52.6877C8.40098 51.8147 8.18578 50.8864 8.30717 49.9554C8.43407 49.0989 7.9237 48.248 8.24372 47.4109C8.41201 46.7009 9.06308 46.3003 9.58449 45.8583C9.67829 42.9409 8.6189 40.0732 9.06307 37.164C9.57069 36.5341 10.3873 36.3076 11.0963 35.9899C10.0562 35.7744 9.01618 35.5561 7.98164 35.3268C7.94025 34.1499 8.10027 32.984 8.3458 31.8347C8.72652 30.0417 8.51683 28.188 8.80099 26.3839C8.84513 25.9253 9.34448 25.7706 9.73899 25.754C10.6825 25.6849 11.6343 25.6407 12.5612 25.417C12.2854 23.1377 12.0564 20.8115 12.5695 18.5433C13.0661 15.8663 14.2634 13.1533 16.5063 11.4957C18.0513 10.4513 20.2831 9.83526 21.897 11.0812C22.0294 10.9901 22.2943 10.8105 22.4267 10.7221C21.4887 8.18868 21.6956 5.26021 23.1854 2.9782C24.1482 1.4228 25.8366 0.538729 27.5305 0ZM42.6791 17.43C42.5963 18.093 42.3921 18.7505 41.7521 19.0682C42.5963 19.013 43.4515 19.0158 44.2847 18.8334C44.2654 18.3472 44.2488 17.8637 44.2295 17.3775C43.7081 17.3885 43.1922 17.4051 42.6791 17.43ZM40.93 19.3031C40.8582 19.397 40.712 19.5793 40.6403 19.6733C40.7727 20.5712 41.4431 21.306 41.89 22.0851C42.5411 21.1679 43.2005 20.2507 43.8212 19.3114C42.8584 19.2672 41.89 19.2036 40.93 19.3031Z" fill="white"/>
</svg>
