<svg width="96" height="41" viewBox="0 0 96 41" fill="none" xmlns="http://www.w3.org/2000/svg">
<path d="M53.5075 14.2813H50.989C49.4954 14.2813 48.3876 15.389 48.3876 16.8847V26.1204H51.2421V17.3059C51.2421 17.003 51.4433 16.6337 51.9142 16.6337H52.5843C53.0552 16.6337 53.2565 16.92 53.2565 17.3059V19.7393H51.7462V22.0897H53.2565V26.1204H56.111V16.8847C56.111 15.389 55.0011 14.2813 53.5075 14.2813ZM40.0855 16.9013V26.1184H42.9607V21.3823H46.1741V19.0152H42.9607V17.3245C42.9607 17.0196 43.164 16.6483 43.637 16.6483H47.3587V14.2813H42.7076C41.2016 14.2813 40.0855 15.3953 40.0855 16.9013ZM36.1834 14.2813H39.0565V26.1184H36.1834V14.2813ZM27.8853 16.9013V26.1184H30.7606V21.3823H33.974V19.0152H30.7585V17.3245C30.7585 17.0196 30.9618 16.6483 31.4348 16.6483H35.1544V14.2813H30.5054C29.0014 14.2813 27.8853 15.3953 27.8853 16.9013ZM68.8505 26.1184C67.3901 26.1184 66.3072 25.0209 66.3072 23.5397V16.8868C66.3072 15.4077 67.3901 14.2792 68.8505 14.2792H71.313C72.7734 14.2792 73.8563 15.4056 73.8563 16.8868V23.5397C73.8563 25.0189 72.7734 26.1184 71.3129 26.1184H68.8505ZM70.4105 23.772C70.869 23.772 71.0661 23.407 71.0661 23.1062V17.2851C71.0661 16.9864 70.869 16.6296 70.4106 16.6296H69.755C69.2965 16.6296 69.0995 16.9843 69.0995 17.2851V23.1062C69.0995 23.4049 69.2966 23.7721 69.755 23.7721L70.4105 23.772ZM65.2782 16.8993C65.2782 15.4409 64.2348 14.3476 62.8055 14.2813H60.6106C59.1585 14.2813 58.0735 15.3371 58.0258 16.7769V17.8805H60.3762V17.2934C60.3803 16.9947 60.5816 16.6337 61.0442 16.6337H61.735C62.208 16.6337 62.4092 17.0051 62.4092 17.31V17.7975C62.3573 18.1481 61.9964 18.5962 61.6354 18.9634C61.262 19.343 60.8969 19.6355 60.8969 19.6355L58.7042 21.6374C57.9885 22.2618 58.03 23.4132 58.03 23.7513V26.1184H65.2762V23.7513H60.8969V23.4837C60.9156 23.3695 60.9799 23.2513 61.094 23.1102L62.6706 21.5129L62.6789 21.5108L62.681 21.5087L64.3551 19.8139C65.2823 18.7268 65.2658 17.9779 65.2658 17.6398C65.2679 17.6896 65.2782 16.8992 65.2782 16.8992V16.8993Z" fill="#E7E7E7"/>
</svg>
