<svg width="48" height="48" viewBox="0 0 48 48" fill="none" xmlns="http://www.w3.org/2000/svg">
<mask id="path-1-inside-1" fill="white">
<path fill-rule="evenodd" clip-rule="evenodd" d="M30.6232 11.4014C30.2403 11.7805 29.744 12.0452 29.2052 12.0452H20.2295C19.6056 12.0452 19.0539 11.6838 18.6257 11.2299C17.4041 9.93518 15.2591 9.46412 11.4926 9.46412C8.20106 9.46412 3.21871 9.46412 3.21871 22.3698C3.21871 24.0203 3.16861 25.6426 3.12062 27.1966C2.89231 34.5899 2.71172 40.4377 8.20106 40.4377C12.4655 40.4377 16.2166 36.554 18.3562 31.2589C18.6306 30.5797 19.2773 30.1132 20.0099 30.1132H28.217C28.9496 30.1132 29.5962 30.5797 29.8707 31.2589C32.0103 36.554 35.7614 40.4377 40.0258 40.4377C45.528 40.4377 45.3337 33.9722 45.1046 26.3516C45.0571 24.7714 45.0081 23.1416 45.0081 21.5094C45.0081 12.0059 42.6115 9.46411 36.7342 9.46411C34.0954 9.46411 32.0624 9.97652 30.6232 11.4014Z"/>
</mask>
<path d="M3.12062 27.1966L1.40069 27.1435L3.12062 27.1966ZM45.1046 26.3516L43.3846 26.4033V26.4033L45.1046 26.3516ZM29.8707 31.2589L31.4661 30.6142L29.8707 31.2589ZM18.3562 31.2589L19.9516 31.9035L18.3562 31.2589ZM30.6232 11.4014L31.8339 12.6242L30.6232 11.4014ZM18.6257 11.2299L17.3741 12.4108L18.6257 11.2299ZM20.2295 13.766H29.2052V10.3245H20.2295V13.766ZM11.4926 11.1849C15.2938 11.1849 16.711 11.7081 17.3741 12.4108L19.8773 10.0491C18.0971 8.16229 15.2243 7.74336 11.4926 7.74336V11.1849ZM4.93947 22.3698C4.93947 16.0373 6.18197 13.4198 7.32167 12.3103C8.41768 11.2433 9.77981 11.1849 11.4926 11.1849V7.74336C9.91389 7.74336 7.13905 7.68498 4.92099 9.84437C2.74662 11.9612 1.49796 15.7966 1.49796 22.3698H4.93947ZM4.84056 27.2497C4.88843 25.6995 4.93947 24.0511 4.93947 22.3698H1.49796C1.49796 23.9896 1.4488 25.5857 1.40069 27.1435L4.84056 27.2497ZM8.20106 38.7169C7.14978 38.7169 6.56873 38.4458 6.1985 38.1188C5.79822 37.7652 5.44123 37.1661 5.18344 36.1618C4.64599 34.068 4.72328 31.0475 4.84056 27.2497L1.40069 27.1435C1.28965 30.7389 1.16248 34.339 1.85 37.0174C2.20469 38.3993 2.81753 39.7242 3.92013 40.6981C5.05279 41.6986 6.50767 42.1585 8.20106 42.1585V38.7169ZM16.7607 30.6142C14.6982 35.7187 11.374 38.7169 8.20106 38.7169V42.1585C13.5569 42.1585 17.735 37.3893 19.9516 31.9035L16.7607 30.6142ZM28.217 28.3924H20.0099V31.8339H28.217V28.3924ZM28.2752 31.9035C30.4919 37.3893 34.67 42.1584 40.0258 42.1584V38.7169C36.8528 38.7169 33.5287 35.7187 31.4661 30.6142L28.2752 31.9035ZM40.0258 42.1584C41.7673 42.1584 43.2416 41.6327 44.3673 40.547C45.4485 39.5043 46.0435 38.1022 46.3885 36.6503C47.064 33.8081 46.9364 30.019 46.8246 26.2999L43.3846 26.4033C43.5019 30.3048 43.5859 33.5587 43.0403 35.8545C42.7748 36.9715 42.401 37.6621 41.9783 38.0698C41.6001 38.4345 41.0354 38.7169 40.0258 38.7169V42.1584ZM46.8246 26.2999C46.777 24.7156 46.7289 23.1115 46.7289 21.5094H43.2874C43.2874 23.1717 43.3373 24.8272 43.3846 26.4033L46.8246 26.2999ZM46.7289 21.5094C46.7289 16.726 46.1504 13.2124 44.464 10.907C42.6492 8.42615 39.8866 7.74336 36.7342 7.74336V11.1849C39.4591 11.1849 40.8335 11.773 41.6863 12.9389C42.6676 14.2803 43.2874 16.7893 43.2874 21.5094H46.7289ZM36.7342 7.74336C33.9137 7.74336 31.3259 8.28428 29.4125 10.1786L31.8339 12.6242C32.7989 11.6688 34.277 11.1849 36.7342 11.1849V7.74336ZM28.217 31.8339C28.2171 31.8339 28.2168 31.8339 28.2162 31.8338C28.2157 31.8337 28.2156 31.8337 28.216 31.8338C28.2169 31.8341 28.2212 31.8356 28.228 31.8404C28.2429 31.8509 28.2623 31.8716 28.2752 31.9035L31.4661 30.6142C30.9477 29.3312 29.6999 28.3924 28.217 28.3924V31.8339ZM19.9516 31.9035C19.9645 31.8716 19.9839 31.8509 19.9988 31.8404C20.0057 31.8356 20.01 31.8341 20.0108 31.8338C20.0113 31.8337 20.0112 31.8337 20.0107 31.8338C20.0101 31.8339 20.0097 31.8339 20.0099 31.8339V28.3924C18.527 28.3924 17.2792 29.3312 16.7607 30.6142L19.9516 31.9035ZM29.2052 13.766C30.3203 13.766 31.228 13.2241 31.8339 12.6242L29.4125 10.1786C29.34 10.2504 29.2764 10.2912 29.2348 10.311C29.1963 10.3292 29.1883 10.3245 29.2052 10.3245V13.766ZM20.2295 10.3245C20.2587 10.3245 20.2463 10.3344 20.1787 10.2974C20.1053 10.2574 20.0002 10.1793 19.8773 10.0491L17.3741 12.4108C17.9521 13.0234 18.9259 13.766 20.2295 13.766V10.3245Z" fill="#A1AFD3" mask="url(#path-1-inside-1)"/>
<circle cx="11.6378" cy="18.0679" r="2.58113" fill="#A1AFD3"/>
<circle opacity="0.5" cx="16.7999" cy="23.2301" r="2.58113" fill="#A1AFD3"/>
<path fill-rule="evenodd" clip-rule="evenodd" d="M34.0075 16.3472C33.5323 16.3472 33.1471 16.7324 33.1471 17.2075V18.9283C33.1471 19.4035 32.7619 19.7887 32.2867 19.7887L30.5659 19.7887C30.0908 19.7887 29.7056 20.1739 29.7056 20.6491V22.3698C29.7056 22.845 30.0908 23.2302 30.5659 23.2302H32.2867C32.7619 23.2302 33.1471 23.6154 33.1471 24.0906V25.8113C33.1471 26.2865 33.5323 26.6717 34.0075 26.6717H35.7282C36.2034 26.6717 36.5886 26.2865 36.5886 25.8113V24.0906C36.5886 23.6154 36.9738 23.2302 37.449 23.2302H39.1697C39.6449 23.2302 40.0301 22.845 40.0301 22.3698V20.6491C40.0301 20.1739 39.6449 19.7887 39.1697 19.7887L37.449 19.7887C36.9738 19.7887 36.5886 19.4035 36.5886 18.9283V17.2075C36.5886 16.7324 36.2034 16.3472 35.7282 16.3472H34.0075Z" fill="#A1AFD3"/>
</svg>
