<svg width="48" height="48" viewBox="0 0 48 48" fill="none" xmlns="http://www.w3.org/2000/svg">
<mask id="path-1-inside-1" fill="white">
<path fill-rule="evenodd" clip-rule="evenodd" d="M30.623 11.4016C30.24 11.7808 29.7438 12.0455 29.2049 12.0455H20.2293C19.6053 12.0455 19.0537 11.6841 18.6254 11.2302C17.4038 9.93543 15.2588 9.46436 11.4924 9.46436C8.20081 9.46436 3.21847 9.46436 3.21847 22.37C3.21847 24.0206 3.16837 25.6428 3.12038 27.1968C2.89206 34.5901 2.71147 40.4379 8.20081 40.4379C12.4652 40.4379 16.2163 36.5543 18.3559 31.2591C18.6304 30.5799 19.277 30.1134 20.0096 30.1134H28.2167C28.9493 30.1134 29.596 30.5799 29.8704 31.2591C32.01 36.5543 35.7611 40.4379 40.0255 40.4379C45.5277 40.4379 45.3334 33.9724 45.1044 26.3519C45.0569 24.7717 45.0079 23.1418 45.0079 21.5096C45.0079 12.0062 42.6113 9.46436 36.734 9.46436C34.0951 9.46436 32.0621 9.97677 30.623 11.4016Z"/>
</mask>
<path d="M3.12038 27.1968L1.40044 27.1437L3.12038 27.1968ZM45.1044 26.3519L43.3844 26.4036V26.4036L45.1044 26.3519ZM29.8704 31.2591L31.4659 30.6145L29.8704 31.2591ZM18.3559 31.2591L19.9514 31.9038L18.3559 31.2591ZM18.6254 11.2302L17.3738 12.4111L18.6254 11.2302ZM20.2293 13.7662H29.2049V10.3247H20.2293V13.7662ZM11.4924 11.1851C15.2936 11.1851 16.7108 11.7083 17.3738 12.4111L19.877 10.0493C18.0969 8.16253 15.2241 7.74361 11.4924 7.74361V11.1851ZM4.93922 22.37C4.93922 16.0375 6.18173 13.4201 7.32143 12.3105C8.41744 11.2435 9.77956 11.1851 11.4924 11.1851V7.74361C9.91364 7.74361 7.1388 7.68522 4.92074 9.84462C2.74638 11.9615 1.49771 15.7969 1.49771 22.37H4.93922ZM4.84031 27.2499C4.88819 25.6998 4.93922 24.0514 4.93922 22.37H1.49771C1.49771 23.9898 1.44855 25.5859 1.40044 27.1437L4.84031 27.2499ZM8.20081 38.7172C7.14953 38.7172 6.56848 38.4461 6.19825 38.119C5.79797 37.7655 5.44098 37.1663 5.1832 36.162C4.64575 34.0682 4.72303 31.0477 4.84031 27.2499L1.40044 27.1437C1.28941 30.7392 1.16224 34.3392 1.84975 37.0177C2.20445 38.3995 2.81729 39.7244 3.91989 40.6984C5.05254 41.6989 6.50742 42.1587 8.20081 42.1587V38.7172ZM16.7605 30.6145C14.698 35.7189 11.3738 38.7172 8.20081 38.7172V42.1587C13.5566 42.1587 17.7347 37.3896 19.9514 31.9038L16.7605 30.6145ZM28.2167 28.3927H20.0096V31.8342H28.2167V28.3927ZM28.275 31.9038C30.4916 37.3896 34.6697 42.1587 40.0255 42.1587V38.7172C36.8526 38.7172 33.5284 35.7189 31.4659 30.6145L28.275 31.9038ZM40.0255 42.1587C41.767 42.1587 43.2413 41.6329 44.3671 40.5472C45.4483 39.5045 46.0432 38.1024 46.3883 36.6505C47.0638 33.8084 46.9361 30.0192 46.8243 26.3002L43.3844 26.4036C43.5017 30.3051 43.5857 33.559 43.0401 35.8547C42.7746 36.9718 42.4008 37.6623 41.978 38.0701C41.5999 38.4347 41.0352 38.7172 40.0255 38.7172V42.1587ZM46.8243 26.3002C46.7767 24.7159 46.7286 23.1117 46.7286 21.5096H43.2871C43.2871 23.1719 43.337 24.8275 43.3844 26.4036L46.8243 26.3002ZM46.7286 21.5096C46.7286 16.7263 46.1502 13.2126 44.4638 10.9073C42.649 8.42639 39.8864 7.7436 36.734 7.7436V11.1851C39.4589 11.1851 40.8332 11.7732 41.6861 12.9391C42.6673 14.2805 43.2871 16.7895 43.2871 21.5096H46.7286ZM36.734 7.7436C33.9134 7.7436 31.3256 8.28452 29.4123 10.1788L31.8336 12.6245C32.7987 11.669 34.2768 11.1851 36.734 11.1851V7.7436ZM28.2167 31.8342C28.2169 31.8342 28.2165 31.8342 28.216 31.8341C28.2154 31.834 28.2153 31.8339 28.2158 31.8341C28.2166 31.8343 28.2209 31.8359 28.2278 31.8407C28.2427 31.8511 28.2621 31.8718 28.275 31.9038L31.4659 30.6145C30.9474 29.3314 29.6996 28.3927 28.2167 28.3927V31.8342ZM19.9514 31.9038C19.9643 31.8718 19.9837 31.8511 19.9986 31.8407C20.0054 31.8359 20.0097 31.8343 20.0106 31.8341C20.011 31.8339 20.0109 31.834 20.0104 31.8341C20.0099 31.8342 20.0095 31.8342 20.0096 31.8342V28.3927C18.5267 28.3927 17.2789 29.3314 16.7605 30.6145L19.9514 31.9038ZM29.2049 13.7662C30.32 13.7662 31.2278 13.2243 31.8336 12.6245L29.4123 10.1788C29.3397 10.2507 29.2762 10.2914 29.2346 10.3112C29.1961 10.3295 29.1881 10.3247 29.2049 10.3247V13.7662ZM20.2293 10.3247C20.2585 10.3247 20.2461 10.3346 20.1785 10.2977C20.1051 10.2576 19.9999 10.1795 19.877 10.0493L17.3738 12.4111C17.9518 13.0237 18.9256 13.7662 20.2293 13.7662V10.3247Z" fill="#BE1338" mask="url(#path-1-inside-1)"/>
<circle cx="11.6378" cy="18.0679" r="2.58113" fill="#BE1338"/>
<circle opacity="0.5" cx="16.8" cy="23.2301" r="2.58113" fill="#BE1338"/>
<path fill-rule="evenodd" clip-rule="evenodd" d="M34.0076 16.3472C33.5324 16.3472 33.1472 16.7324 33.1472 17.2075V18.9283C33.1472 19.4035 32.762 19.7887 32.2868 19.7887L30.5661 19.7887C30.0909 19.7887 29.7057 20.1739 29.7057 20.6491V22.3698C29.7057 22.845 30.0909 23.2302 30.5661 23.2302H32.2868C32.762 23.2302 33.1472 23.6154 33.1472 24.0906V25.8113C33.1472 26.2865 33.5324 26.6717 34.0076 26.6717H35.7283C36.2035 26.6717 36.5887 26.2865 36.5887 25.8113V24.0906C36.5887 23.6154 36.9739 23.2302 37.4491 23.2302H39.1698C39.645 23.2302 40.0302 22.845 40.0302 22.3698V20.6491C40.0302 20.1739 39.645 19.7887 39.1698 19.7887L37.4491 19.7887C36.9739 19.7887 36.5887 19.4035 36.5887 18.9283V17.2075C36.5887 16.7324 36.2035 16.3472 35.7283 16.3472H34.0076Z" fill="#BE1338"/>
</svg>
