<svg width="48" height="48" viewBox="0 0 48 48" fill="none" xmlns="http://www.w3.org/2000/svg">
<path d="M4.86038 28C4.86038 26.266 6.26603 24.8604 8 24.8604H14C15.734 24.8604 17.1396 26.266 17.1396 28V40.1396H8C6.26603 40.1396 4.86038 38.734 4.86038 37V28Z" fill="#171931" stroke="#BE1338" stroke-width="1.72075"/>
<path d="M16.8604 12C16.8604 10.266 18.266 8.86038 20 8.86038H26C27.734 8.86038 29.1396 10.266 29.1396 12V40.1396H16.8604V12Z" fill="#171931" stroke="#BE1338" stroke-width="1.72075"/>
<path opacity="0.5" d="M29.8604 20C29.8604 18.266 31.266 16.8604 33 16.8604H39C40.734 16.8604 42.1396 18.266 42.1396 20V37C42.1396 38.734 40.734 40.1396 39 40.1396H29.8604V20Z" fill="#171931" stroke="#BE1338" stroke-width="1.72075"/>
<path d="M17 40H28V41H17V40Z" fill="#BE1338"/>
</svg>
