<svg width="40" height="40" viewBox="0 0 40 40" fill="none" xmlns="http://www.w3.org/2000/svg">
<path d="M22.457 12.6327V7.6655C22.457 6.82542 22.457 6.40538 22.2935 6.08452C22.1497 5.80227 21.9203 5.5728 21.638 5.42899C21.3171 5.2655 20.8971 5.2655 20.057 5.2655H7.66693C6.82685 5.2655 6.40681 5.2655 6.08594 5.42899C5.8037 5.5728 5.57423 5.80227 5.43042 6.08452C5.26693 6.40538 5.26693 6.82542 5.26693 7.6655V32.3343C5.26693 33.1743 5.26693 33.5944 5.43042 33.9152C5.57423 34.1975 5.8037 34.427 6.08594 34.5708C6.40681 34.7343 6.82685 34.7343 7.66693 34.7343H20.057C20.8971 34.7343 21.3171 34.7343 21.638 34.5708C21.9203 34.427 22.1497 34.1975 22.2935 33.9152C22.457 33.5944 22.457 33.1743 22.457 32.3343V27.3671M15.0898 19.9999H37.1914M37.1914 19.9999L29.8242 27.3671M37.1914 19.9999L29.8242 12.6327" stroke="#A1AFD3" stroke-width="2" stroke-linecap="round" stroke-linejoin="round"/>
</svg>
