<svg width="34" height="22" viewBox="0 0 34 22" fill="none" xmlns="http://www.w3.org/2000/svg">
<path d="M21.5914 2.22852H12.4233V18.7469H21.5914V2.22852Z" fill="#FF5F00"/>
<path d="M12.9766 10.5265C12.9766 7.28605 14.4783 4.28271 17.0074 2.22779C12.4234 -1.3288 5.86342 -0.538434 2.22779 3.96658C-1.3288 8.55063 -0.538434 15.1106 3.96658 18.7462C7.76028 21.7495 13.1347 21.7495 16.9284 18.7462C14.4783 16.7703 12.9766 13.767 12.9766 10.5265Z" fill="#EB001B"/>
<path d="M34 10.5266C34 16.2962 29.337 21.0383 23.4884 21.0383C21.1173 21.0383 18.8253 20.248 17.0074 18.8253C21.5915 15.2687 22.3819 8.6298 18.7462 4.12478C18.193 3.4925 17.6397 2.86021 17.0074 2.386C21.5915 -1.17059 28.1514 -0.380231 31.708 4.12478C33.2097 5.86356 34 8.15557 34 10.5266Z" fill="#F79E1B"/>
</svg>
