<svg width="48" height="48" viewBox="0 0 48 48" fill="none" xmlns="http://www.w3.org/2000/svg">
<path d="M38.1422 9.85781C34.3646 6.08039 29.3422 4 24 4C18.6578 4 13.6354 6.08039 9.85781 9.85781C6.08039 13.6354 4 18.6578 4 24V42.8281C4 43.4753 4.52469 44 5.17188 44H42.8281C43.4753 44 44 43.4753 44 42.8281V24C44 18.6578 41.9196 13.6354 38.1422 9.85781ZM39.6103 15.7578C40.7427 17.8938 41.4491 20.2884 41.6164 22.8281H34.5679C34.4945 20.3549 34.1893 17.965 33.6727 15.7578H39.6103ZM38.122 13.4141H33.022C32.6459 12.255 32.2061 11.1648 31.7049 10.1624C31.1777 9.10781 30.5971 8.18039 29.9737 7.38484C33.2441 8.56422 36.0695 10.6827 38.122 13.4141ZM25.1719 6.54094C26.7913 7.08133 28.3617 8.7168 29.6086 11.2105C29.9533 11.8999 30.266 12.6373 30.5464 13.4141H25.1719V6.54094ZM25.1719 15.7578H31.2623C31.8166 17.9335 32.1448 20.3296 32.2232 22.8281H25.1719V15.7578ZM22.8281 6.54094V13.4141H17.4536C17.734 12.6373 18.0466 11.9 18.3914 11.2105C19.6383 8.7168 21.2087 7.08133 22.8281 6.54094ZM22.8281 15.7578V22.8281H15.7768C15.8552 20.3296 16.1834 17.9335 16.7377 15.7578H22.8281ZM18.0263 7.38484C17.4029 8.18039 16.8224 9.10789 16.2951 10.1624C15.7939 11.1648 15.3541 12.255 14.978 13.4141H9.87797C11.9305 10.6827 14.7559 8.56422 18.0263 7.38484ZM8.38969 15.7578H14.3273C13.8107 17.965 13.5055 20.3549 13.4321 22.8281H6.38359C6.55086 20.2884 7.25734 17.8938 8.38969 15.7578ZM41.6562 41.6562H6.34375V25.1719H41.6562V41.6562Z" fill="#A1AFD3"/>
<path opacity="0.6" d="M9.5835 37.8672C10.1229 37.8672 10.5601 37.4299 10.5601 36.8906V33.0052L13.5255 37.2994C13.8087 37.7083 14.2823 37.8817 14.7325 37.7412C15.191 37.598 15.4872 37.1711 15.4872 36.6537C15.4872 36.6505 15.4872 36.6474 15.4872 36.6443L15.4846 29.8499C15.4794 29.3137 14.9801 28.8828 14.4451 28.8828C14.4419 28.8828 14.4386 28.8828 14.4354 28.8828C13.8962 28.888 13.501 29.3201 13.5062 29.8594L13.5067 33.835L10.3871 29.3176C10.1442 28.9659 9.70084 28.8129 9.29287 28.9402C8.88482 29.0673 8.60693 29.4451 8.60693 29.8725V36.8906C8.60693 37.4299 9.0442 37.8672 9.5835 37.8672Z" fill="#A1AFD3"/>
<path opacity="0.6" d="M17.8311 37.8672H20.7937C21.333 37.8672 21.7703 37.4299 21.7703 36.8906C21.7703 36.3513 21.333 35.9141 20.7937 35.9141H18.8076V34.3516H20.5753C21.1146 34.3516 21.5518 33.9144 21.5518 33.375C21.5518 32.8356 21.1146 32.3984 20.5753 32.3984H18.8076V30.8359H20.7937C21.333 30.8359 21.7703 30.3987 21.7703 29.8594C21.7703 29.3201 21.333 28.8828 20.7937 28.8828H17.8311C17.2917 28.8828 16.8545 29.3201 16.8545 29.8594V36.8906C16.8545 37.4299 17.2917 37.8672 17.8311 37.8672Z" fill="#A1AFD3"/>
<path opacity="0.6" d="M36.4326 37.867C37.9618 37.867 39.2465 36.8876 39.4875 35.5382C39.6695 34.5189 39.2117 33.1892 37.3811 32.514C36.5344 32.2017 35.7448 31.8618 35.485 31.7483C35.3421 31.6256 35.3473 31.4588 35.3575 31.3885C35.3726 31.2829 35.4508 31.0245 35.8482 30.9048C36.7963 30.6191 37.6852 31.3277 37.694 31.3348L37.6877 31.3296L37.6886 31.3286C37.8586 31.4719 38.0779 31.5586 38.3176 31.5586C38.857 31.5586 39.2942 31.1213 39.2942 30.5821C39.2942 30.2692 39.1465 29.9913 38.9176 29.8126C38.6915 29.632 37.1442 28.4743 35.2849 29.0346C34.2774 29.3381 33.5645 30.1337 33.4243 31.1109C33.2923 32.0302 33.6908 32.9145 34.4644 33.4188C34.5076 33.447 34.5528 33.4717 34.5998 33.4926C34.6406 33.5108 35.6118 33.9431 36.7052 34.3464C36.9278 34.4285 37.6475 34.7323 37.5648 35.1949C37.5017 35.5482 37.061 35.9138 36.4327 35.9138C35.7609 35.9138 35.1155 35.6442 34.7061 35.1924C34.3438 34.7928 33.7264 34.7624 33.3267 35.1245C32.927 35.4867 32.8966 36.1043 33.2588 36.5039C34.0436 37.3702 35.2005 37.867 36.4326 37.867Z" fill="#A1AFD3"/>
<path opacity="0.6" d="M24.2749 36.9744C24.2842 37.0212 24.2969 37.0672 24.3128 37.1122C24.4737 37.5646 24.9029 37.8671 25.3824 37.8671H25.3904C25.8731 37.8637 26.3019 37.5544 26.4572 37.0974C26.4601 37.0889 26.4629 37.0803 26.4656 37.0717L27.6715 33.1756L28.872 37.0725C28.8761 37.0857 28.8804 37.0987 28.8851 37.1118C29.0467 37.5668 29.48 37.8688 29.9624 37.8671C30.4453 37.8638 30.8741 37.5546 31.0296 37.0974C31.0434 37.0569 31.0544 37.0155 31.0629 36.9736L32.4383 30.0629C32.5436 29.5339 32.2 29.0198 31.6711 28.9145C31.1421 28.8095 30.6279 29.1526 30.5227 29.6816L29.7833 33.3966L28.6051 29.5718C28.4628 29.1101 28.0047 28.8216 27.5264 28.8936C27.1175 28.9552 26.7997 29.2647 26.7165 29.6555L25.5583 33.3975L24.821 29.6698C24.7163 29.1407 24.2024 28.7966 23.6735 28.9013C23.1444 29.0059 22.8003 29.5198 22.905 30.0488L24.2749 36.9744Z" fill="#A1AFD3"/>
</svg>
