<svg width="48" height="48" viewBox="0 0 48 48" fill="none" xmlns="http://www.w3.org/2000/svg">
<path d="M38.1422 9.85781C34.3646 6.08039 29.3422 4 24 4C18.6578 4 13.6354 6.08039 9.85781 9.85781C6.08039 13.6354 4 18.6578 4 24V42.8281C4 43.4753 4.52469 44 5.17188 44H42.8281C43.4753 44 44 43.4753 44 42.8281V24C44 18.6578 41.9196 13.6354 38.1422 9.85781ZM39.6103 15.7578C40.7427 17.8938 41.4491 20.2884 41.6164 22.8281H34.5679C34.4945 20.3549 34.1893 17.965 33.6727 15.7578H39.6103ZM38.122 13.4141H33.022C32.6459 12.255 32.2061 11.1648 31.7049 10.1624C31.1777 9.10781 30.5971 8.18039 29.9737 7.38484C33.2441 8.56422 36.0695 10.6827 38.122 13.4141ZM25.1719 6.54094C26.7913 7.08133 28.3617 8.7168 29.6086 11.2105C29.9533 11.8999 30.266 12.6373 30.5464 13.4141H25.1719V6.54094ZM25.1719 15.7578H31.2623C31.8166 17.9335 32.1448 20.3296 32.2232 22.8281H25.1719V15.7578ZM22.8281 6.54094V13.4141H17.4536C17.734 12.6373 18.0466 11.9 18.3914 11.2105C19.6383 8.7168 21.2087 7.08133 22.8281 6.54094ZM22.8281 15.7578V22.8281H15.7768C15.8552 20.3296 16.1834 17.9335 16.7377 15.7578H22.8281ZM18.0263 7.38484C17.4029 8.18039 16.8224 9.10789 16.2951 10.1624C15.7939 11.1648 15.3541 12.255 14.978 13.4141H9.87797C11.9305 10.6827 14.7559 8.56422 18.0263 7.38484ZM8.38969 15.7578H14.3273C13.8107 17.965 13.5055 20.3549 13.4321 22.8281H6.38359C6.55086 20.2884 7.25734 17.8938 8.38969 15.7578ZM41.6562 41.6562H6.34375V25.1719H41.6562V41.6562Z" fill="#BE1338"/>
<path opacity="0.6" d="M9.58325 37.8672C10.1226 37.8672 10.5598 37.4299 10.5598 36.8906V33.0052L13.5253 37.2994C13.8084 37.7083 14.2821 37.8817 14.7322 37.7412C15.1908 37.598 15.4869 37.1711 15.4869 36.6537C15.4869 36.6505 15.4869 36.6474 15.4869 36.6443L15.4843 29.8499C15.4792 29.3137 14.9798 28.8828 14.4448 28.8828C14.4416 28.8828 14.4383 28.8828 14.4352 28.8828C13.8959 28.888 13.5008 29.3201 13.506 29.8594L13.5065 33.835L10.3868 29.3176C10.144 28.9659 9.7006 28.8129 9.29263 28.9402C8.88458 29.0673 8.60669 29.4451 8.60669 29.8725V36.8906C8.60669 37.4299 9.04396 37.8672 9.58325 37.8672Z" fill="#BE1338"/>
<path opacity="0.6" d="M17.8312 37.8672H20.7938C21.3331 37.8672 21.7704 37.4299 21.7704 36.8906C21.7704 36.3513 21.3331 35.9141 20.7938 35.9141H18.8077V34.3516H20.5754C21.1147 34.3516 21.552 33.9144 21.552 33.375C21.552 32.8356 21.1147 32.3984 20.5754 32.3984H18.8077V30.8359H20.7938C21.3331 30.8359 21.7704 30.3987 21.7704 29.8594C21.7704 29.3201 21.3331 28.8828 20.7938 28.8828H17.8312C17.2918 28.8828 16.8546 29.3201 16.8546 29.8594V36.8906C16.8546 37.4299 17.2918 37.8672 17.8312 37.8672Z" fill="#BE1338"/>
<path opacity="0.6" d="M36.4329 37.867C37.962 37.867 39.2468 36.8876 39.4877 35.5382C39.6698 34.5189 39.2119 33.1892 37.3814 32.514C36.5346 32.2017 35.7451 31.8618 35.4852 31.7483C35.3423 31.6256 35.3476 31.4588 35.3577 31.3885C35.3728 31.2829 35.451 31.0245 35.8484 30.9048C36.7965 30.6191 37.6855 31.3277 37.6942 31.3348L37.688 31.3296L37.6888 31.3286C37.8588 31.4719 38.0782 31.5586 38.3179 31.5586C38.8573 31.5586 39.2944 31.1213 39.2944 30.5821C39.2944 30.2692 39.1467 29.9913 38.9179 29.8126C38.6918 29.632 37.1444 28.4743 35.2851 29.0346C34.2776 29.3381 33.5648 30.1337 33.4245 31.1109C33.2926 32.0302 33.6911 32.9145 34.4646 33.4188C34.5078 33.447 34.553 33.4717 34.6001 33.4926C34.6408 33.5108 35.612 33.9431 36.7055 34.3464C36.928 34.4285 37.6477 34.7323 37.5651 35.1949C37.5019 35.5482 37.0612 35.9138 36.433 35.9138C35.7612 35.9138 35.1158 35.6442 34.7063 35.1924C34.344 34.7928 33.7266 34.7624 33.3269 35.1245C32.9273 35.4867 32.8969 36.1043 33.259 36.5039C34.0439 37.3702 35.2008 37.867 36.4329 37.867Z" fill="#BE1338"/>
<path opacity="0.6" d="M24.275 36.9746C24.2843 37.0214 24.297 37.0674 24.3129 37.1124C24.4739 37.5648 24.903 37.8673 25.3825 37.8673H25.3905C25.8732 37.864 26.302 37.5547 26.4574 37.0977C26.4603 37.0891 26.4631 37.0805 26.4657 37.072L27.6717 33.1759L28.8721 37.0727C28.8763 37.0859 28.8805 37.099 28.8852 37.112C29.0468 37.567 29.4801 37.8691 29.9625 37.8673C30.4454 37.8641 30.8742 37.5548 31.0297 37.0977C31.0435 37.0571 31.0545 37.0158 31.063 36.9738L32.4384 30.0631C32.5437 29.5341 32.2002 29.02 31.6713 28.9147C31.1422 28.8097 30.6281 29.1528 30.5228 29.6819L29.7835 33.3969L28.6052 29.572C28.4629 29.1103 28.0049 28.8218 27.5265 28.8938C27.1176 28.9554 26.7999 29.2649 26.7167 29.6557L25.5585 33.3977L24.8211 29.6701C24.7164 29.1409 24.2025 28.7969 23.6736 28.9016C23.1446 29.0062 22.8004 29.52 22.9051 30.0491L24.275 36.9746Z" fill="#BE1338"/>
</svg>
