<svg width="368" height="372" viewBox="0 0 368 372" fill="none" xmlns="http://www.w3.org/2000/svg">	<g filter="url(#filter0_f)">		<g filter="url(#filter1_d)">			<path d="M180.362 104H184.638C185.819 104 186.776 104.957 186.776 106.138V125.38C186.776 126.56 185.819 127.517 184.638 127.517H180.362C179.181 127.517 178.224 126.56 178.224 125.38V106.138C178.224 104.957 179.181 104 180.362 104Z" fill="#BE1338"/>		</g>		<g filter="url(#filter2_d)">			<path d="M180.362 204.482H184.638C185.819 204.482 186.776 205.439 186.776 206.62V225.861C186.776 227.042 185.819 227.999 184.638 227.999H180.362C179.181 227.999 178.224 227.042 178.224 225.861V206.62C178.224 205.439 179.181 204.482 180.362 204.482Z" fill="#BE1338"/>		</g>		<g filter="url(#filter3_d)">			<path d="M223.12 161.725H242.362C243.543 161.725 244.5 162.682 244.5 163.863V168.139C244.5 169.319 243.543 170.277 242.362 170.277H223.12C221.94 170.277 220.983 169.319 220.983 168.139V163.863C220.983 162.682 221.94 161.725 223.12 161.725Z" fill="#BE1338"/>		</g>		<g filter="url(#filter4_d)">			<path d="M122.638 161.725H141.88C143.06 161.725 144.017 162.682 144.017 163.863V168.139C144.017 169.319 143.06 170.277 141.88 170.277H122.638C121.457 170.277 120.5 169.319 120.5 168.139V163.863C120.5 162.682 121.457 161.725 122.638 161.725Z" fill="#BE1338"/>		</g>		<g filter="url(#filter5_d)">			<path d="M237.402 157.449C233.664 133.6 214.913 114.918 191.051 111.27V119.885C210.182 123.392 225.171 138.329 228.744 157.449H237.402Z" fill="#BE1338"/>		</g>		<g filter="url(#filter6_d)">			<path d="M127.79 157.449H136.428C139.998 138.4 154.899 123.499 173.949 119.928V111.291C150.165 115.008 131.507 133.666 127.79 157.449Z" fill="#BE1338"/>		</g>		<g filter="url(#filter7_d)">			<path d="M237.402 174.551H228.744C225.171 193.67 210.182 208.607 191.051 212.114V220.73C214.913 217.081 233.664 198.4 237.402 174.551Z" fill="#BE1338"/>		</g>		<g filter="url(#filter8_d)">			<path d="M173.949 220.709V212.072C154.899 208.501 139.998 193.6 136.428 174.551H127.79C131.507 198.334 150.165 216.992 173.949 220.709Z" fill="#BE1338"/>		</g>		<g filter="url(#filter9_d)">			<path d="M194.301 153.279L189.683 156.358C188.636 157.067 187.4 157.448 186.135 157.449H178.865C177.584 157.444 176.334 157.057 175.274 156.336L170.699 153.279C166.997 153.679 163.341 154.415 159.774 155.481L159.004 155.738C158.915 155.776 158.821 155.804 158.726 155.823C159.367 162.429 161.612 167.582 165.396 170.276C168.486 172.874 172.997 172.874 176.086 170.276C178.951 167.411 180.576 165.978 182.5 165.978C184.424 165.978 186.049 167.411 188.914 170.276C192.003 172.874 196.514 172.874 199.603 170.276C203.408 167.582 205.633 162.472 206.274 155.823C206.21 155.801 206.124 155.781 206.06 155.759C205.846 155.674 205.653 155.609 205.44 155.545C201.809 154.434 198.078 153.676 194.301 153.279Z" fill="#BE1338"/>		</g>		<path d="M199.604 183.103C201.927 180.798 203.429 177.793 203.88 174.551L204.029 172.136C203.421 172.724 202.771 173.267 202.083 173.76C199.701 175.492 196.84 176.44 193.895 176.475C190.91 176.532 188.028 175.385 185.899 173.29C184.86 172.191 183.722 171.189 182.5 170.297C181.278 171.189 180.14 172.191 179.101 173.29C176.972 175.385 174.09 176.532 171.105 176.475C168.16 176.44 165.299 175.492 162.917 173.76C162.229 173.267 161.579 172.724 160.971 172.136L161.12 174.551C161.544 178.439 163.023 182.135 165.397 185.242L171.811 191.655C173.55 193.243 175.88 194.02 178.224 193.793H186.776C188.446 193.744 190.01 192.962 191.051 191.655L199.604 183.103ZM177.604 186.759C176.761 187.586 175.411 187.586 174.568 186.759L170.292 182.484C169.454 181.645 169.454 180.286 170.292 179.448C171.131 178.609 172.49 178.609 173.328 179.448L177.604 183.723C178.438 184.563 178.438 185.919 177.604 186.759ZM186.776 187.38C186.209 187.377 185.665 187.154 185.258 186.759C184.424 185.919 184.424 184.563 185.258 183.723L189.534 179.448C190.372 178.609 191.732 178.609 192.57 179.448C193.408 180.286 193.408 181.645 192.57 182.484L188.294 186.759C187.887 187.154 187.343 187.377 186.776 187.38Z" fill="#BE1338"/>		<path d="M207.493 151.719C208.401 152.035 209.409 151.7 209.946 150.901C210.483 150.103 210.415 149.043 209.78 148.32L202.255 140.837C201.92 140.518 201.494 140.309 201.036 140.239L186.926 138.229C186.828 138.212 186.726 138.204 186.627 138.208H178.374C178.274 138.204 178.173 138.212 178.075 138.229L163.964 140.239C163.502 140.308 163.074 140.526 162.746 140.859L155.242 148.32C154.632 149.053 154.581 150.101 155.116 150.889C155.652 151.678 156.645 152.016 157.55 151.719C157.85 151.613 158.149 151.527 158.47 151.42C162.572 150.17 166.791 149.346 171.063 148.962C171.544 148.922 172.025 149.042 172.431 149.303L177.69 152.81C178.037 153.045 178.447 153.172 178.866 153.173H186.135C186.554 153.172 186.964 153.045 187.311 152.81L192.57 149.303C192.976 149.042 193.456 148.922 193.938 148.962C198.218 149.335 202.446 150.159 206.552 151.42C206.872 151.506 207.193 151.613 207.493 151.719Z" fill="#BE1338"/>	</g>	<g filter="url(#filter10_d)">		<path d="M183.362 96H187.638C188.819 96 189.776 96.9574 189.776 98.1381V117.38C189.776 118.56 188.819 119.517 187.638 119.517H183.362C182.181 119.517 181.224 118.56 181.224 117.38V98.1381C181.224 96.9574 182.181 96 183.362 96Z" fill="#BE1338"/>	</g>	<g filter="url(#filter11_d)">		<path d="M183.362 196.482H187.638C188.819 196.482 189.776 197.439 189.776 198.62V217.861C189.776 219.042 188.819 219.999 187.638 219.999H183.362C182.181 219.999 181.224 219.042 181.224 217.861V198.62C181.224 197.439 182.181 196.482 183.362 196.482Z" fill="#BE1338"/>	</g>	<g filter="url(#filter12_d)">		<path d="M226.12 153.725H245.362C246.543 153.725 247.5 154.682 247.5 155.863V160.139C247.5 161.319 246.543 162.277 245.362 162.277H226.12C224.94 162.277 223.983 161.319 223.983 160.139V155.863C223.983 154.682 224.94 153.725 226.12 153.725Z" fill="#BE1338"/>	</g>	<g filter="url(#filter13_d)">		<path d="M125.638 153.725H144.88C146.06 153.725 147.017 154.682 147.017 155.863V160.139C147.017 161.319 146.06 162.277 144.88 162.277H125.638C124.457 162.277 123.5 161.319 123.5 160.139V155.863C123.5 154.682 124.457 153.725 125.638 153.725Z" fill="#BE1338"/>	</g>	<g filter="url(#filter14_d)">		<path d="M240.402 149.449C236.664 125.6 217.913 106.918 194.051 103.27V111.885C213.182 115.392 228.171 130.329 231.744 149.449H240.402Z" fill="#BE1338"/>	</g>	<g filter="url(#filter15_d)">		<path d="M130.79 149.449H139.428C142.998 130.4 157.899 115.499 176.949 111.928V103.291C153.165 107.008 134.507 125.666 130.79 149.449Z" fill="#BE1338"/>	</g>	<g filter="url(#filter16_d)">		<path d="M240.402 166.551H231.744C228.171 185.67 213.182 200.607 194.051 204.114V212.73C217.913 209.081 236.664 190.4 240.402 166.551Z" fill="#BE1338"/>	</g>	<g filter="url(#filter17_d)">		<path d="M176.949 212.709V204.072C157.899 200.501 142.998 185.6 139.428 166.551H130.79C134.507 190.334 153.165 208.992 176.949 212.709Z" fill="#BE1338"/>	</g>	<g filter="url(#filter18_d)">		<path d="M197.301 145.279L192.683 148.358C191.636 149.067 190.4 149.448 189.135 149.449H181.865C180.584 149.444 179.334 149.057 178.274 148.336L173.699 145.279C169.997 145.679 166.341 146.415 162.774 147.481L162.004 147.738C161.915 147.776 161.821 147.804 161.726 147.823C162.367 154.429 164.612 159.582 168.396 162.276C171.486 164.874 175.997 164.874 179.086 162.276C181.951 159.411 183.576 157.978 185.5 157.978C187.424 157.978 189.049 159.411 191.914 162.276C195.003 164.874 199.514 164.874 202.603 162.276C206.408 159.582 208.633 154.472 209.274 147.823C209.21 147.801 209.124 147.781 209.06 147.759C208.846 147.674 208.653 147.609 208.44 147.545C204.809 146.434 201.078 145.676 197.301 145.279Z" fill="#BE1338"/>	</g>	<path d="M202.604 175.103C204.927 172.798 206.429 169.793 206.88 166.551L207.029 164.136C206.421 164.724 205.771 165.267 205.083 165.76C202.701 167.492 199.84 168.44 196.895 168.475C193.91 168.532 191.028 167.385 188.899 165.29C187.86 164.191 186.722 163.189 185.5 162.297C184.278 163.189 183.14 164.191 182.101 165.29C179.972 167.385 177.09 168.532 174.105 168.475C171.16 168.44 168.299 167.492 165.917 165.76C165.229 165.267 164.579 164.724 163.971 164.136L164.12 166.551C164.544 170.439 166.023 174.135 168.397 177.242L174.811 183.655C176.55 185.243 178.88 186.02 181.224 185.793H189.776C191.446 185.744 193.01 184.962 194.051 183.655L202.604 175.103ZM180.604 178.759C179.761 179.586 178.411 179.586 177.568 178.759L173.292 174.484C172.454 173.645 172.454 172.286 173.292 171.448C174.131 170.609 175.49 170.609 176.328 171.448L180.604 175.723C181.438 176.563 181.438 177.919 180.604 178.759ZM189.776 179.38C189.209 179.377 188.665 179.154 188.258 178.759C187.424 177.919 187.424 176.563 188.258 175.723L192.534 171.448C193.372 170.609 194.732 170.609 195.57 171.448C196.408 172.286 196.408 173.645 195.57 174.484L191.294 178.759C190.887 179.154 190.343 179.377 189.776 179.38Z" fill="#BE1338"/>	<path d="M210.493 143.719C211.401 144.035 212.409 143.7 212.946 142.901C213.483 142.103 213.415 141.043 212.78 140.32L205.255 132.837C204.92 132.518 204.494 132.309 204.036 132.239L189.926 130.229C189.828 130.212 189.726 130.204 189.627 130.208H181.374C181.274 130.204 181.173 130.212 181.075 130.229L166.964 132.239C166.502 132.308 166.074 132.526 165.746 132.859L158.242 140.32C157.632 141.053 157.581 142.101 158.116 142.889C158.652 143.678 159.645 144.016 160.55 143.719C160.85 143.613 161.149 143.527 161.47 143.42C165.572 142.17 169.791 141.346 174.063 140.962C174.544 140.922 175.025 141.042 175.431 141.303L180.69 144.81C181.037 145.045 181.447 145.172 181.866 145.173H189.135C189.554 145.172 189.964 145.045 190.311 144.81L195.57 141.303C195.976 141.042 196.456 140.922 196.938 140.962C201.218 141.335 205.446 142.159 209.552 143.42C209.872 143.506 210.193 143.613 210.493 143.719Z" fill="#BE1338"/>	<defs>		<filter id="filter0_f" x="80.5" y="64" width="204" height="203.999" filterUnits="userSpaceOnUse" color-interpolation-filters="sRGB">			<feFlood flood-opacity="0" result="BackgroundImageFix"/>			<feBlend mode="normal" in="SourceGraphic" in2="BackgroundImageFix" result="shape"/>			<feGaussianBlur stdDeviation="20" result="effect1_foregroundBlur"/>		</filter>		<filter id="filter1_d" x="58.2241" y="8" width="248.552" height="263.517" filterUnits="userSpaceOnUse" color-interpolation-filters="sRGB">			<feFlood flood-opacity="0" result="BackgroundImageFix"/>			<feColorMatrix in="SourceAlpha" type="matrix" values="0 0 0 0 0 0 0 0 0 0 0 0 0 0 0 0 0 0 127 0"/>			<feOffset dy="24"/>			<feGaussianBlur stdDeviation="60"/>			<feColorMatrix type="matrix" values="0 0 0 0 0.745098 0 0 0 0 0.0745098 0 0 0 0 0.219608 0 0 0 0.65 0"/>			<feBlend mode="normal" in2="BackgroundImageFix" result="effect1_dropShadow"/>			<feBlend mode="normal" in="SourceGraphic" in2="effect1_dropShadow" result="shape"/>		</filter>		<filter id="filter2_d" x="58.2241" y="108.482" width="248.552" height="263.517" filterUnits="userSpaceOnUse" color-interpolation-filters="sRGB">			<feFlood flood-opacity="0" result="BackgroundImageFix"/>			<feColorMatrix in="SourceAlpha" type="matrix" values="0 0 0 0 0 0 0 0 0 0 0 0 0 0 0 0 0 0 127 0"/>			<feOffset dy="24"/>			<feGaussianBlur stdDeviation="60"/>			<feColorMatrix type="matrix" values="0 0 0 0 0.745098 0 0 0 0 0.0745098 0 0 0 0 0.219608 0 0 0 0.65 0"/>			<feBlend mode="normal" in2="BackgroundImageFix" result="effect1_dropShadow"/>			<feBlend mode="normal" in="SourceGraphic" in2="effect1_dropShadow" result="shape"/>		</filter>		<filter id="filter3_d" x="100.983" y="65.7246" width="263.517" height="248.552" filterUnits="userSpaceOnUse" color-interpolation-filters="sRGB">			<feFlood flood-opacity="0" result="BackgroundImageFix"/>			<feColorMatrix in="SourceAlpha" type="matrix" values="0 0 0 0 0 0 0 0 0 0 0 0 0 0 0 0 0 0 127 0"/>			<feOffset dy="24"/>			<feGaussianBlur stdDeviation="60"/>			<feColorMatrix type="matrix" values="0 0 0 0 0.745098 0 0 0 0 0.0745098 0 0 0 0 0.219608 0 0 0 0.65 0"/>			<feBlend mode="normal" in2="BackgroundImageFix" result="effect1_dropShadow"/>			<feBlend mode="normal" in="SourceGraphic" in2="effect1_dropShadow" result="shape"/>		</filter>		<filter id="filter4_d" x="0.5" y="65.7246" width="263.517" height="248.552" filterUnits="userSpaceOnUse" color-interpolation-filters="sRGB">			<feFlood flood-opacity="0" result="BackgroundImageFix"/>			<feColorMatrix in="SourceAlpha" type="matrix" values="0 0 0 0 0 0 0 0 0 0 0 0 0 0 0 0 0 0 127 0"/>			<feOffset dy="24"/>			<feGaussianBlur stdDeviation="60"/>			<feColorMatrix type="matrix" values="0 0 0 0 0.745098 0 0 0 0 0.0745098 0 0 0 0 0.219608 0 0 0 0.65 0"/>			<feBlend mode="normal" in2="BackgroundImageFix" result="effect1_dropShadow"/>			<feBlend mode="normal" in="SourceGraphic" in2="effect1_dropShadow" result="shape"/>		</filter>		<filter id="filter5_d" x="71.0508" y="15.2695" width="286.351" height="286.179" filterUnits="userSpaceOnUse" color-interpolation-filters="sRGB">			<feFlood flood-opacity="0" result="BackgroundImageFix"/>			<feColorMatrix in="SourceAlpha" type="matrix" values="0 0 0 0 0 0 0 0 0 0 0 0 0 0 0 0 0 0 127 0"/>			<feOffset dy="24"/>			<feGaussianBlur stdDeviation="60"/>			<feColorMatrix type="matrix" values="0 0 0 0 0.745098 0 0 0 0 0.0745098 0 0 0 0 0.219608 0 0 0 0.65 0"/>			<feBlend mode="normal" in2="BackgroundImageFix" result="effect1_dropShadow"/>			<feBlend mode="normal" in="SourceGraphic" in2="effect1_dropShadow" result="shape"/>		</filter>		<filter id="filter6_d" x="7.79004" y="15.291" width="286.159" height="286.158" filterUnits="userSpaceOnUse" color-interpolation-filters="sRGB">			<feFlood flood-opacity="0" result="BackgroundImageFix"/>			<feColorMatrix in="SourceAlpha" type="matrix" values="0 0 0 0 0 0 0 0 0 0 0 0 0 0 0 0 0 0 127 0"/>			<feOffset dy="24"/>			<feGaussianBlur stdDeviation="60"/>			<feColorMatrix type="matrix" values="0 0 0 0 0.745098 0 0 0 0 0.0745098 0 0 0 0 0.219608 0 0 0 0.65 0"/>			<feBlend mode="normal" in2="BackgroundImageFix" result="effect1_dropShadow"/>			<feBlend mode="normal" in="SourceGraphic" in2="effect1_dropShadow" result="shape"/>		</filter>		<filter id="filter7_d" x="71.0508" y="78.5508" width="286.351" height="286.179" filterUnits="userSpaceOnUse" color-interpolation-filters="sRGB">			<feFlood flood-opacity="0" result="BackgroundImageFix"/>			<feColorMatrix in="SourceAlpha" type="matrix" values="0 0 0 0 0 0 0 0 0 0 0 0 0 0 0 0 0 0 127 0"/>			<feOffset dy="24"/>			<feGaussianBlur stdDeviation="60"/>			<feColorMatrix type="matrix" values="0 0 0 0 0.745098 0 0 0 0 0.0745098 0 0 0 0 0.219608 0 0 0 0.65 0"/>			<feBlend mode="normal" in2="BackgroundImageFix" result="effect1_dropShadow"/>			<feBlend mode="normal" in="SourceGraphic" in2="effect1_dropShadow" result="shape"/>		</filter>		<filter id="filter8_d" x="7.79004" y="78.5508" width="286.159" height="286.158" filterUnits="userSpaceOnUse" color-interpolation-filters="sRGB">			<feFlood flood-opacity="0" result="BackgroundImageFix"/>			<feColorMatrix in="SourceAlpha" type="matrix" values="0 0 0 0 0 0 0 0 0 0 0 0 0 0 0 0 0 0 127 0"/>			<feOffset dy="24"/>			<feGaussianBlur stdDeviation="60"/>			<feColorMatrix type="matrix" values="0 0 0 0 0.745098 0 0 0 0 0.0745098 0 0 0 0 0.219608 0 0 0 0.65 0"/>			<feBlend mode="normal" in2="BackgroundImageFix" result="effect1_dropShadow"/>			<feBlend mode="normal" in="SourceGraphic" in2="effect1_dropShadow" result="shape"/>		</filter>		<filter id="filter9_d" x="38.7261" y="57.2793" width="287.548" height="258.945" filterUnits="userSpaceOnUse" color-interpolation-filters="sRGB">			<feFlood flood-opacity="0" result="BackgroundImageFix"/>			<feColorMatrix in="SourceAlpha" type="matrix" values="0 0 0 0 0 0 0 0 0 0 0 0 0 0 0 0 0 0 127 0"/>			<feOffset dy="24"/>			<feGaussianBlur stdDeviation="60"/>			<feColorMatrix type="matrix" values="0 0 0 0 0.745098 0 0 0 0 0.0745098 0 0 0 0 0.219608 0 0 0 0.65 0"/>			<feBlend mode="normal" in2="BackgroundImageFix" result="effect1_dropShadow"/>			<feBlend mode="normal" in="SourceGraphic" in2="effect1_dropShadow" result="shape"/>		</filter>		<filter id="filter10_d" x="61.2241" y="0" width="248.552" height="263.517" filterUnits="userSpaceOnUse" color-interpolation-filters="sRGB">			<feFlood flood-opacity="0" result="BackgroundImageFix"/>			<feColorMatrix in="SourceAlpha" type="matrix" values="0 0 0 0 0 0 0 0 0 0 0 0 0 0 0 0 0 0 127 0"/>			<feOffset dy="24"/>			<feGaussianBlur stdDeviation="60"/>			<feColorMatrix type="matrix" values="0 0 0 0 0.745098 0 0 0 0 0.0745098 0 0 0 0 0.219608 0 0 0 0.65 0"/>			<feBlend mode="normal" in2="BackgroundImageFix" result="effect1_dropShadow"/>			<feBlend mode="normal" in="SourceGraphic" in2="effect1_dropShadow" result="shape"/>		</filter>		<filter id="filter11_d" x="61.2241" y="100.482" width="248.552" height="263.517" filterUnits="userSpaceOnUse" color-interpolation-filters="sRGB">			<feFlood flood-opacity="0" result="BackgroundImageFix"/>			<feColorMatrix in="SourceAlpha" type="matrix" values="0 0 0 0 0 0 0 0 0 0 0 0 0 0 0 0 0 0 127 0"/>			<feOffset dy="24"/>			<feGaussianBlur stdDeviation="60"/>			<feColorMatrix type="matrix" values="0 0 0 0 0.745098 0 0 0 0 0.0745098 0 0 0 0 0.219608 0 0 0 0.65 0"/>			<feBlend mode="normal" in2="BackgroundImageFix" result="effect1_dropShadow"/>			<feBlend mode="normal" in="SourceGraphic" in2="effect1_dropShadow" result="shape"/>		</filter>		<filter id="filter12_d" x="103.983" y="57.7246" width="263.517" height="248.552" filterUnits="userSpaceOnUse" color-interpolation-filters="sRGB">			<feFlood flood-opacity="0" result="BackgroundImageFix"/>			<feColorMatrix in="SourceAlpha" type="matrix" values="0 0 0 0 0 0 0 0 0 0 0 0 0 0 0 0 0 0 127 0"/>			<feOffset dy="24"/>			<feGaussianBlur stdDeviation="60"/>			<feColorMatrix type="matrix" values="0 0 0 0 0.745098 0 0 0 0 0.0745098 0 0 0 0 0.219608 0 0 0 0.65 0"/>			<feBlend mode="normal" in2="BackgroundImageFix" result="effect1_dropShadow"/>			<feBlend mode="normal" in="SourceGraphic" in2="effect1_dropShadow" result="shape"/>		</filter>		<filter id="filter13_d" x="3.5" y="57.7246" width="263.517" height="248.552" filterUnits="userSpaceOnUse" color-interpolation-filters="sRGB">			<feFlood flood-opacity="0" result="BackgroundImageFix"/>			<feColorMatrix in="SourceAlpha" type="matrix" values="0 0 0 0 0 0 0 0 0 0 0 0 0 0 0 0 0 0 127 0"/>			<feOffset dy="24"/>			<feGaussianBlur stdDeviation="60"/>			<feColorMatrix type="matrix" values="0 0 0 0 0.745098 0 0 0 0 0.0745098 0 0 0 0 0.219608 0 0 0 0.65 0"/>			<feBlend mode="normal" in2="BackgroundImageFix" result="effect1_dropShadow"/>			<feBlend mode="normal" in="SourceGraphic" in2="effect1_dropShadow" result="shape"/>		</filter>		<filter id="filter14_d" x="74.0508" y="7.26953" width="286.351" height="286.179" filterUnits="userSpaceOnUse" color-interpolation-filters="sRGB">			<feFlood flood-opacity="0" result="BackgroundImageFix"/>			<feColorMatrix in="SourceAlpha" type="matrix" values="0 0 0 0 0 0 0 0 0 0 0 0 0 0 0 0 0 0 127 0"/>			<feOffset dy="24"/>			<feGaussianBlur stdDeviation="60"/>			<feColorMatrix type="matrix" values="0 0 0 0 0.745098 0 0 0 0 0.0745098 0 0 0 0 0.219608 0 0 0 0.65 0"/>			<feBlend mode="normal" in2="BackgroundImageFix" result="effect1_dropShadow"/>			<feBlend mode="normal" in="SourceGraphic" in2="effect1_dropShadow" result="shape"/>		</filter>		<filter id="filter15_d" x="10.79" y="7.29102" width="286.159" height="286.158" filterUnits="userSpaceOnUse" color-interpolation-filters="sRGB">			<feFlood flood-opacity="0" result="BackgroundImageFix"/>			<feColorMatrix in="SourceAlpha" type="matrix" values="0 0 0 0 0 0 0 0 0 0 0 0 0 0 0 0 0 0 127 0"/>			<feOffset dy="24"/>			<feGaussianBlur stdDeviation="60"/>			<feColorMatrix type="matrix" values="0 0 0 0 0.745098 0 0 0 0 0.0745098 0 0 0 0 0.219608 0 0 0 0.65 0"/>			<feBlend mode="normal" in2="BackgroundImageFix" result="effect1_dropShadow"/>			<feBlend mode="normal" in="SourceGraphic" in2="effect1_dropShadow" result="shape"/>		</filter>		<filter id="filter16_d" x="74.0508" y="70.5508" width="286.351" height="286.179" filterUnits="userSpaceOnUse" color-interpolation-filters="sRGB">			<feFlood flood-opacity="0" result="BackgroundImageFix"/>			<feColorMatrix in="SourceAlpha" type="matrix" values="0 0 0 0 0 0 0 0 0 0 0 0 0 0 0 0 0 0 127 0"/>			<feOffset dy="24"/>			<feGaussianBlur stdDeviation="60"/>			<feColorMatrix type="matrix" values="0 0 0 0 0.745098 0 0 0 0 0.0745098 0 0 0 0 0.219608 0 0 0 0.65 0"/>			<feBlend mode="normal" in2="BackgroundImageFix" result="effect1_dropShadow"/>			<feBlend mode="normal" in="SourceGraphic" in2="effect1_dropShadow" result="shape"/>		</filter>		<filter id="filter17_d" x="10.79" y="70.5508" width="286.159" height="286.158" filterUnits="userSpaceOnUse" color-interpolation-filters="sRGB">			<feFlood flood-opacity="0" result="BackgroundImageFix"/>			<feColorMatrix in="SourceAlpha" type="matrix" values="0 0 0 0 0 0 0 0 0 0 0 0 0 0 0 0 0 0 127 0"/>			<feOffset dy="24"/>			<feGaussianBlur stdDeviation="60"/>			<feColorMatrix type="matrix" values="0 0 0 0 0.745098 0 0 0 0 0.0745098 0 0 0 0 0.219608 0 0 0 0.65 0"/>			<feBlend mode="normal" in2="BackgroundImageFix" result="effect1_dropShadow"/>			<feBlend mode="normal" in="SourceGraphic" in2="effect1_dropShadow" result="shape"/>		</filter>		<filter id="filter18_d" x="41.7261" y="49.2793" width="287.548" height="258.945" filterUnits="userSpaceOnUse" color-interpolation-filters="sRGB">			<feFlood flood-opacity="0" result="BackgroundImageFix"/>			<feColorMatrix in="SourceAlpha" type="matrix" values="0 0 0 0 0 0 0 0 0 0 0 0 0 0 0 0 0 0 127 0"/>			<feOffset dy="24"/>			<feGaussianBlur stdDeviation="60"/>			<feColorMatrix type="matrix" values="0 0 0 0 0.745098 0 0 0 0 0.0745098 0 0 0 0 0.219608 0 0 0 0.65 0"/>			<feBlend mode="normal" in2="BackgroundImageFix" result="effect1_dropShadow"/>			<feBlend mode="normal" in="SourceGraphic" in2="effect1_dropShadow" result="shape"/>		</filter>	</defs></svg>