<svg width="48" height="48" viewBox="0 0 48 48" fill="none" xmlns="http://www.w3.org/2000/svg">
<path opacity="0.5" d="M19 34C19 36.7614 21.2386 39 24 39C26.7614 39 29 36.7614 29 34" stroke="#BE1338" stroke-width="2"/>
<path d="M35.0005 20.9426C35.0005 15.8125 33.6698 12.2082 31.681 9.90201C29.7025 7.60781 26.9904 6.5 24.0005 6.5C21.0107 6.5 18.2986 7.60781 16.3201 9.90201C14.3313 12.2082 13.0005 15.8125 13.0005 20.9426C13.0005 22.46 12.4405 23.8049 11.8749 25.1629C11.796 25.3524 11.717 25.5421 11.6394 25.7326C10.9863 27.3355 10.2952 29.2516 10.0733 32.0797C10.0367 32.5461 10.4241 33 11.0005 33H37.0006C37.5819 33 37.9519 32.545 37.9079 32.0997C37.6635 29.6311 36.9776 27.6984 36.323 25.9674C36.2727 25.8345 36.2221 25.7017 36.1715 25.5689C35.5847 24.0289 35.0005 22.4959 35.0005 20.9426Z" stroke="#BE1338" stroke-width="2"/>
</svg>
