<svg width="26" height="24" viewBox="0 0 26 24" fill="none" xmlns="http://www.w3.org/2000/svg">
<path d="M17.0709 2.38694C16.021 1.19199 14.1233 0.679688 11.6956 0.679688H4.64961C4.15291 0.679688 3.73084 1.04043 3.65307 1.52956L0.719286 20.1109C0.660961 20.4772 0.945059 20.8092 1.31696 20.8092H5.66684L6.75933 13.8893L6.72546 14.106C6.80323 13.6169 7.22216 13.2561 7.71824 13.2561H9.78531C13.8461 13.2561 17.0257 11.609 17.9545 6.84423C17.9821 6.70331 18.0059 6.56615 18.0266 6.43213C17.9094 6.37013 17.9094 6.37013 18.0266 6.43213C18.3032 4.67101 18.0246 3.4723 17.0709 2.38694Z" fill="#003087"/>
<path d="M17.0709 2.38694C16.021 1.19199 14.1233 0.679688 11.6956 0.679688H4.64961C4.15291 0.679688 3.73084 1.04043 3.65307 1.52956L0.719286 20.1109C0.660961 20.4772 0.945059 20.8092 1.31696 20.8092H5.66684L6.75933 13.8893L6.72546 14.106C6.80323 13.6169 7.22216 13.2561 7.71824 13.2561H9.78531C13.8461 13.2561 17.0257 11.609 17.9545 6.84423C17.9821 6.70331 18.0059 6.56615 18.0266 6.43213C17.9094 6.37013 17.9094 6.37013 18.0266 6.43213C18.3032 4.67101 18.0246 3.4723 17.0709 2.38694Z" fill="#003087"/>
<path d="M7.93359 6.4553C7.98 6.16095 8.1694 5.91983 8.42402 5.7977C8.54004 5.74259 8.66923 5.7119 8.8047 5.7119H14.3286C14.9827 5.7119 15.5929 5.75449 16.1505 5.84405C16.3104 5.8697 16.4653 5.89916 16.6158 5.93298C16.7663 5.96615 16.9124 6.00375 17.0542 6.04508C17.125 6.06573 17.1947 6.08707 17.263 6.10959C17.5371 6.20103 17.7923 6.3075 18.0269 6.43213C18.3035 4.67039 18.0249 3.4723 17.0711 2.38694C16.0206 1.19199 14.1235 0.679688 11.6958 0.679688H4.64923C4.15316 0.679688 3.73109 1.04043 3.65332 1.52956L0.719531 20.1102C0.661206 20.4772 0.945303 20.8085 1.31657 20.8085H5.66709L6.75957 13.8887L7.93359 6.4553Z" fill="#002F86"/>
<path d="M18.0267 6.43164C18.0054 6.56629 17.9821 6.70282 17.9546 6.84374C17.0258 11.6079 13.8461 13.2557 9.78535 13.2557H7.71765C7.22157 13.2557 6.80264 13.6164 6.7255 14.1055L5.66688 20.808L5.36648 22.7095C5.31568 23.0301 5.56403 23.3207 5.88889 23.3207H9.55581C9.9898 23.3207 10.3592 23.0051 10.4269 22.5773L10.4627 22.3907L11.1538 18.0167L11.1984 17.7749C11.2661 17.3472 11.6355 17.0315 12.0695 17.0315H12.6182C16.1704 17.0315 18.9518 15.5905 19.7645 11.4225C20.1038 9.68081 19.9282 8.22658 19.0308 7.2051C18.7586 6.89572 18.4206 6.64019 18.0267 6.43164" fill="#009CDE"/>
<path d="M17.0543 6.04412C16.9126 6.00279 16.7664 5.96521 16.6159 5.93202C16.4654 5.8988 16.3099 5.86939 16.1506 5.84371C15.5924 5.75353 14.9828 5.71094 14.3281 5.71094H8.80482C8.66873 5.71094 8.53954 5.74165 8.42414 5.79737C8.16889 5.91949 7.98012 6.15999 7.93371 6.45497L6.7597 13.8884L6.72583 14.1051C6.80297 13.6159 7.2219 13.2552 7.71798 13.2552H9.78568C13.8464 13.2552 17.0261 11.6081 17.9549 6.84326C17.9825 6.70235 18.0057 6.56582 18.027 6.43117C17.7918 6.30716 17.5372 6.20007 17.2631 6.10926C17.1948 6.08671 17.1252 6.06476 17.0543 6.04412Z" fill="#012069"/>
</svg>
