<svg width="40" height="40" viewBox="0 0 40 40" fill="none" xmlns="http://www.w3.org/2000/svg">
<g clip-path="url(#clip0)">
<path d="M20.5843 14.1406L19.8047 15.3125L20.5843 16.4844H25.8728V14.1406H20.5843Z" fill="#A1AFD3"/>
<path d="M17.077 17.6562V22.3438C17.077 22.9899 16.5524 23.5156 15.9076 23.5156H10.6191V25.8594H15.9076C17.8421 25.8594 19.4159 24.2823 19.4159 22.3438V17.6562C19.4159 17.0101 19.9405 16.4844 20.5853 16.4844V14.1406C18.6509 14.1406 17.077 15.7177 17.077 17.6562Z" fill="#A1AFD3"/>
<path d="M2.37989 25.8594H0.0410156V22.3438C0.0410156 20.4052 1.61485 18.8281 3.54933 18.8281H8.27909C8.92392 18.8281 9.44853 18.3024 9.44853 17.6562C9.44853 17.0101 8.92392 16.4844 8.27909 16.4844H0.0410156V14.1406H8.27909C10.2136 14.1406 11.7874 15.7177 11.7874 17.6562C11.7874 19.5948 10.2136 21.1719 8.27909 21.1719H3.54933C2.90451 21.1719 2.37989 21.6976 2.37989 22.3438V25.8594Z" fill="#A1AFD3"/>
<path d="M37.6194 25.8594H35.2805V23.5156H27.874C26.5844 23.5156 25.5352 22.4642 25.5352 21.1719C25.5352 20.3628 25.9429 19.6218 26.626 19.1895L34.0324 14.502C34.406 14.2656 34.8375 14.1406 35.2805 14.1406C36.5701 14.1406 37.6194 15.192 37.6194 16.4844V21.1717L39.9582 21.1719V23.5156H37.6194V25.8594ZM35.2805 16.4844L27.8749 21.1712L35.2805 21.1716V16.4844Z" fill="#A1AFD3"/>
</g>
<defs>
<clipPath id="clip0">
<rect width="39.9169" height="40" fill="white" transform="translate(0.0410156)"/>
</clipPath>
</defs>
</svg>
