<svg width="48" height="48" viewBox="0 0 48 48" fill="none" xmlns="http://www.w3.org/2000/svg">
<path d="M35.2756 17.2075C35.2756 21.4218 34.636 26.0017 32.8924 29.4948C31.1724 32.9406 28.4206 35.2754 24.0907 35.2754C20.4355 35.2754 17.6631 32.9743 15.7588 29.4684C13.8521 25.9581 12.9058 21.3742 12.9058 17.2075C12.9058 17.0922 12.9057 16.9776 12.9056 16.8638C12.9043 14.7484 12.9031 12.885 13.3643 11.206C13.4292 10.9698 13.6796 10.7547 14.0521 10.7547H34.1292C34.5017 10.7547 34.7522 10.9698 34.817 11.206C35.2782 12.885 35.277 14.7484 35.2757 16.8637C35.2756 16.9776 35.2756 17.0922 35.2756 17.2075Z" stroke="#A1AFD3" stroke-width="1.72075"/>
<path opacity="0.5" d="M13.3357 12.9055H6.8833C6.8833 19.0106 9.66376 24.1937 13.3357 26.8891C13.5734 27.0637 13.8149 27.2278 14.0596 27.381" stroke="#A1AFD3" stroke-width="1.72075"/>
<path opacity="0.5" d="M34.8455 12.9055H41.2979C41.2979 19.4395 38.5174 24.9868 34.8455 27.8716C34.6495 28.0256 34.4509 28.172 34.2501 28.3106" stroke="#A1AFD3" stroke-width="1.72075"/>
<path d="M28.3923 10.3243C28.3923 7.94848 26.4663 6.02246 24.0905 6.02246C21.7146 6.02246 19.7886 7.94848 19.7886 10.3243" stroke="#A1AFD3" stroke-width="1.72075"/>
<path d="M16.3472 40.4377H31.834M31.834 43.8793H16.3472" stroke="#A1AFD3" stroke-width="1.72075"/>
<path d="M16.3468 43.8793C14.4461 43.8793 13.7656 43.1088 13.7656 42.1585C13.7656 41.2082 14.4461 40.4377 16.3468 40.4377" stroke="#A1AFD3" stroke-width="1.72075"/>
<path d="M31.8339 43.8793C33.7346 43.8793 34.415 43.1088 34.415 42.1585C34.415 41.2082 33.7346 40.4377 31.8339 40.4377" stroke="#A1AFD3" stroke-width="1.72075"/>
<path opacity="0.5" d="M26.6715 39.5772V38.7168C26.6715 37.7665 25.9011 36.9961 24.9508 36.9961H23.23C22.2797 36.9961 21.5093 37.7665 21.5093 38.7168V39.5772" stroke="#A1AFD3" stroke-width="1.72075"/>
<rect x="23.23" y="2.58105" width="1.72075" height="4.30189" rx="0.860377" fill="#A1AFD3"/>
</svg>
