<svg width="48" height="48" viewBox="0 0 48 48" fill="none" xmlns="http://www.w3.org/2000/svg">
<path d="M35.2759 17.2073C35.2759 21.4215 34.6363 26.0015 32.8927 29.4946C31.1728 32.9404 28.4209 35.2752 24.091 35.2752C20.4358 35.2752 17.6634 32.974 15.7592 29.4682C13.8525 25.9578 12.9061 21.374 12.9061 17.2073C12.9061 17.0919 12.9061 16.9774 12.906 16.8635C12.9047 14.7481 12.9035 12.8848 13.3647 11.2057C13.4295 10.9696 13.6799 10.7544 14.0525 10.7544H34.1296C34.5021 10.7544 34.7525 10.9696 34.8174 11.2057C35.2786 12.8848 35.2774 14.7481 35.2761 16.8635C35.276 16.9774 35.2759 17.0919 35.2759 17.2073Z" stroke="#BE1338" stroke-width="1.72075"/>
<path opacity="0.5" d="M13.3359 12.9058H6.88348C6.88348 19.0108 9.66394 24.194 13.3359 26.8894C13.5736 27.0639 13.8151 27.228 14.0598 27.3812" stroke="#BE1338" stroke-width="1.72075"/>
<path opacity="0.5" d="M34.8457 12.9058H41.2981C41.2981 19.4397 38.5176 24.9871 34.8457 27.8719C34.6497 28.0259 34.4512 28.1723 34.2503 28.3108" stroke="#BE1338" stroke-width="1.72075"/>
<path d="M28.3925 10.3243C28.3925 7.94848 26.4664 6.02246 24.0906 6.02246C21.7147 6.02246 19.7887 7.94848 19.7887 10.3243" stroke="#BE1338" stroke-width="1.72075"/>
<path d="M16.3472 40.4375H31.834M31.834 43.879H16.3472" stroke="#BE1338" stroke-width="1.72075"/>
<path d="M16.3472 43.879C14.4465 43.879 13.7661 43.1086 13.7661 42.1583C13.7661 41.2079 14.4465 40.4375 16.3472 40.4375" stroke="#BE1338" stroke-width="1.72075"/>
<path d="M31.834 43.879C33.7347 43.879 34.4151 43.1086 34.4151 42.1583C34.4151 41.2079 33.7347 40.4375 31.834 40.4375" stroke="#BE1338" stroke-width="1.72075"/>
<path opacity="0.5" d="M26.6717 39.5772V38.7168C26.6717 37.7665 25.9013 36.9961 24.951 36.9961H23.2302C22.2799 36.9961 21.5095 37.7665 21.5095 38.7168V39.5772" stroke="#BE1338" stroke-width="1.72075"/>
<rect x="23.2302" y="2.58105" width="1.72075" height="4.30189" rx="0.860377" fill="#BE1338"/>
</svg>
