<svg width="51" height="16" viewBox="0 0 51 16" fill="none" xmlns="http://www.w3.org/2000/svg">
<g clip-path="url(#clip0)">
<path d="M22.1 15.7697H17.9686L20.5527 0.28125H24.6838L22.1 15.7697Z" fill="white"/>
<path d="M37.0765 0.659404C36.2616 0.346017 34.9692 0 33.371 0C29.2912 0 26.4182 2.10895 26.4006 5.12412C26.3667 7.3487 28.4575 8.58429 30.0213 9.32603C31.6197 10.084 32.1631 10.5787 32.1631 11.2543C32.1468 12.2919 30.8715 12.7702 29.682 12.7702C28.0326 12.7702 27.1488 12.5236 25.8057 11.9463L25.2617 11.6989L24.6836 15.1757C25.6526 15.6036 27.4378 15.9834 29.2912 16C33.6261 16 36.4483 13.9237 36.4817 10.7105C36.4982 8.94739 35.3941 7.59639 33.0139 6.49242C31.5689 5.78374 30.684 5.30589 30.684 4.58078C30.7009 3.9216 31.4324 3.24643 33.0636 3.24643C34.4066 3.21336 35.3934 3.52631 36.141 3.83947L36.5147 4.00394L37.0765 0.659404Z" fill="white"/>
<path d="M42.5674 10.2827C42.9077 9.39288 44.2168 5.94914 44.2168 5.94914C44.1997 5.98221 44.5564 5.04292 44.7604 4.4663L45.0491 5.80088C45.0491 5.80088 45.8315 9.50829 46.0014 10.2827C45.3557 10.2827 43.3834 10.2827 42.5674 10.2827ZM47.6671 0.28125H44.4715C43.486 0.28125 42.7373 0.561129 42.3121 1.56633L36.1755 15.7694H40.5104C40.5104 15.7694 41.2241 13.8578 41.3775 13.4461C41.8531 13.4461 46.0701 13.4461 46.6818 13.4461C46.8004 13.9899 47.1748 15.7694 47.1748 15.7694H51L47.6671 0.28125Z" fill="white"/>
<path d="M14.518 0.28125L10.472 10.8429L10.0299 8.70085C9.28186 6.22924 6.93593 3.54388 4.31799 2.20865L8.02395 15.7532H12.3927L18.8865 0.28125H14.518Z" fill="white"/>
<path opacity="0.5" d="M6.71495 0.28125H0.0680009L0 0.594198C5.18504 1.8795 8.61899 4.97766 10.0298 8.7015L8.58487 1.58319C8.34698 0.593979 7.61591 0.313881 6.71495 0.28125Z" fill="white"/>
</g>
<defs>
<clipPath id="clip0">
<rect width="51" height="16" fill="white"/>
</clipPath>
</defs>
</svg>
