<svg width="33" height="32" viewBox="0 0 33 32" fill="none" xmlns="http://www.w3.org/2000/svg">
<g clip-path="url(#clip0)">
<path d="M16.1959 4.61661C14.6044 3.50643 12.9064 2.59158 11.1504 1.90037C11.1502 1.90016 11.1499 1.89984 11.1496 1.89935C11.1492 1.8987 11.1489 1.89809 11.1487 1.89763C11.1487 1.89761 11.1487 1.89758 11.1487 1.89756C14.2815 0.703766 18.1081 0.703693 21.2432 1.89764C19.4886 2.58889 17.79 3.50397 16.1959 4.61661Z" stroke="#A1AFD3" stroke-width="2"/>
<path d="M18.8078 6.45579L19.4291 7.23494L19.4311 7.23747C19.4311 7.23757 19.431 7.23768 19.431 7.23777C19.4307 7.23844 19.4306 7.23819 19.4316 7.23737L19.4313 7.23701L19.4297 7.23497L18.8078 6.45579ZM18.8078 6.45579C20.5083 5.09979 22.3165 3.86779 24.1786 2.79179M18.8078 6.45579L25.2424 2.83379M24.1786 2.79179L24.6752 3.65519L24.6742 3.65667C24.6744 3.6568 24.6746 3.65694 24.6748 3.65707C24.6747 3.65705 24.6746 3.65702 24.6745 3.657C24.6739 3.65678 24.6744 3.65682 24.6762 3.65804L24.6765 3.6575L24.6772 3.65864C24.678 3.65819 24.6786 3.65787 24.6791 3.65765C24.6801 3.65714 24.6804 3.65713 24.68 3.65724C24.6797 3.65731 24.6793 3.65738 24.6788 3.65743L24.6778 3.65567L25.2424 2.83379M24.1786 2.79179L24.6765 3.65337L25.2424 2.83379M24.1786 2.79179C24.5159 2.59779 24.9251 2.61579 25.2424 2.83379M31.162 15.9978C31.162 18.9487 30.2948 21.8092 28.6933 24.2275C27.93 21.9014 26.7001 18.9953 25.3082 16.2204C23.5006 12.6166 21.3312 9.05421 19.4316 7.23951L19.4316 7.23735C21.0925 5.91296 22.8588 4.70949 24.6771 3.65869C28.7389 6.46482 31.162 11.0767 31.162 15.9978ZM26.3696 25.1244C26.6118 25.5401 26.8399 25.9318 27.052 26.2941C24.25 29.2944 20.3381 30.9978 16.1953 30.9978C12.0514 30.9978 8.13935 29.2936 5.34784 26.3034C5.57233 25.9193 5.81478 25.5024 6.07265 25.0589C7.22896 23.0702 8.69524 20.5484 10.2426 18.0737C12.3507 14.702 14.5264 11.5562 16.1933 9.99847C17.8587 11.5558 20.0375 14.6997 22.149 18.0686C23.7183 20.5725 25.2055 23.1257 26.3696 25.1244ZM3.70574 24.2362C2.09618 21.8093 1.22852 18.9478 1.22852 15.9978C1.22852 11.0782 3.65009 6.46774 7.70756 3.66134C7.71055 3.65955 7.71274 3.6591 7.71392 3.65899C9.5308 4.70901 11.2943 5.91174 12.9568 7.2357C12.9568 7.23682 12.9566 7.23753 12.9564 7.23793L12.9562 7.23837L12.9559 7.23862C11.0545 9.05453 8.88764 12.6217 7.08304 16.2289C5.69439 19.0046 4.46788 21.9108 3.70574 24.2362Z" stroke="#A1AFD3" stroke-width="2"/>
</g>
<defs>
<clipPath id="clip0">
<rect width="31.9335" height="32" fill="white" transform="translate(0.228516)"/>
</clipPath>
</defs>
</svg>
