<svg width="89" height="79" viewBox="0 0 89 79" fill="none" xmlns="http://www.w3.org/2000/svg">
<path d="M24.0539 19.1773C25.0704 20.2808 26.283 21.1881 27.6306 21.8535C28.3674 22.1983 29.1656 22.394 29.9789 22.4294C30.7907 22.4561 31.6003 22.3296 32.3648 22.0565C33.7296 21.5048 35.0094 20.7642 36.1663 19.8567C37.2344 19.0441 38.3464 18.2904 39.4973 17.5988C40.0487 17.2855 40.6253 17.018 41.2211 16.7993C41.788 16.5911 42.3803 16.4587 42.9823 16.4057C43.5496 16.3556 44.1213 16.4176 44.6644 16.5883C45.2075 16.7589 45.7113 17.0348 46.1468 17.4C47.0881 18.2125 47.8446 19.2152 48.366 20.3414C48.6504 20.9206 48.898 21.5169 49.1072 22.127C49.3197 22.7331 49.4949 23.3515 49.6318 23.9788L51.5055 23.6225C51.4222 23.2083 51.3348 22.8975 51.239 22.5454C51.1433 22.1933 51.0308 21.8535 50.9101 21.5097C50.677 20.8225 50.3988 20.1513 50.0773 19.5004C49.4353 18.1273 48.5054 16.9069 47.3501 15.921C46.7226 15.4136 46.0072 15.0246 45.2391 14.7734C44.4615 14.5314 43.6443 14.4414 42.8324 14.5083C41.3162 14.6744 39.8543 15.1663 38.5479 15.95C37.3358 16.6756 36.1653 17.4682 35.0421 18.3238C34.0281 19.1217 32.9069 19.7743 31.7111 20.2627C31.1757 20.4673 30.6039 20.5604 30.0309 20.5362C29.4579 20.512 28.896 20.3709 28.3801 20.1218C27.2558 19.5552 26.2442 18.7902 25.3947 17.864L24.0539 19.1773Z" fill="#DB164A"/>
<path d="M24.0539 19.1773C25.0704 20.2808 26.283 21.1881 27.6306 21.8535C28.3674 22.1983 29.1656 22.394 29.9789 22.4294C30.7907 22.4561 31.6003 22.3296 32.3648 22.0565C33.7296 21.5048 35.0094 20.7642 36.1663 19.8567C37.2344 19.0441 38.3463 18.2904 39.4973 17.5988C40.0487 17.2855 40.6253 17.018 41.2211 16.7993C41.788 16.5911 42.3803 16.4587 42.9823 16.4057C43.5496 16.3556 44.1213 16.4176 44.6644 16.5883C45.2075 16.7589 45.7113 17.0348 46.1468 17.4C47.0881 18.2125 47.8446 19.2152 48.366 20.3414C48.6504 20.9206 48.898 21.5169 49.1072 22.127C49.3197 22.7331 49.4949 23.3515 49.6318 23.9788L50.2356 23.8628C49.9495 22.5499 49.5064 21.2759 48.9156 20.068C48.3564 18.8627 47.5443 17.7906 46.534 16.9235C46.0312 16.5142 45.4567 16.201 44.8393 15.9997C44.2221 15.8065 43.5727 15.7361 42.9282 15.7925C41.6017 15.9434 40.3235 16.3772 39.1808 17.0644C38.015 17.7686 36.8891 18.5361 35.8082 19.3637C34.6988 20.2337 33.4725 20.9449 32.1649 21.4765C31.4745 21.7263 30.7423 21.8416 30.0081 21.8163C29.2767 21.7828 28.5591 21.6054 27.8971 21.2943C26.6229 20.6596 25.4757 19.799 24.512 18.7547L24.0539 19.1773Z" fill="#C10E34"/>
<path d="M51.0683 23.7095C50.7692 22.3218 50.3022 20.9752 49.6776 19.6993C49.058 18.3823 48.1622 17.2126 47.0503 16.269C46.4661 15.7943 45.7982 15.4318 45.0808 15.2001C44.3601 14.9741 43.6022 14.8897 42.8491 14.9515C41.3987 15.1119 40.0007 15.584 38.752 16.3353C37.5538 17.0514 36.3972 17.8343 35.2877 18.6801C34.2433 19.5028 33.0885 20.1763 31.8568 20.6811C31.2703 20.9011 30.6451 21.0006 30.019 20.9736C29.3928 20.9465 28.7786 20.7935 28.2135 20.5237C27.0374 19.9348 25.9792 19.1373 25.0907 18.1705L24.8201 18.4274C25.7411 19.4307 26.839 20.2578 28.0595 20.8675C28.6693 21.154 29.3302 21.3173 30.0039 21.3481C30.6774 21.3699 31.3487 21.263 31.9817 21.0332C33.2487 20.51 34.4358 19.8127 35.5084 18.9618C36.6058 18.1236 37.7499 17.3476 38.9352 16.6377C40.1426 15.9242 41.4903 15.4777 42.8865 15.3285C43.589 15.2721 44.2959 15.3509 44.9684 15.5605C45.6473 15.7779 46.2787 16.1208 46.8296 16.5714C47.89 17.4866 48.7417 18.6166 49.3279 19.8857C49.9374 21.1314 50.3932 22.446 50.6852 23.8007L51.0683 23.7095Z" fill="#C10E34"/>
<path d="M54.5354 18.7524L45.1104 22.1915L47.3412 28.2436L56.7661 24.8045L54.5354 18.7524Z" fill="#C10E34"/>
<path d="M63.7802 47.7836C63.8459 47.6464 63.9466 47.5286 64.0722 47.4421C64.1979 47.3556 64.3441 47.3034 64.4964 47.2906H69.3888C69.6594 47.2906 69.7802 47.5144 69.6511 47.7836L63.2597 61.4219C63.1915 61.5585 63.0889 61.6753 62.962 61.761C62.8351 61.8466 62.6881 61.8982 62.5353 61.9108H57.6429C57.3722 61.9108 57.2515 61.6912 57.3805 61.4219L63.7802 47.7836Z" fill="#C10E34"/>
<path d="M59.5082 31.8171L41.3418 70.5693C41.3401 70.583 41.3401 70.597 41.3418 70.6107C36.7478 65.9953 33.9302 59.9202 33.3816 53.4473C32.833 46.9745 34.5882 40.5157 38.3404 35.1999C42.0926 29.8842 47.6031 26.0496 53.9087 24.3665C60.2144 22.6834 66.9139 23.2588 72.8363 25.9922C72.7392 26.0094 72.6443 26.0372 72.5532 26.0751L60.4784 30.9429C60.058 31.1059 59.7127 31.417 59.5082 31.8171Z" fill="#C10E34"/>
<path d="M70.692 77.1233C65.8857 78.8784 60.6859 79.2803 55.6648 78.2847C50.6437 77.2892 45.9959 74.9349 42.2328 71.4807C42.2742 71.4721 42.3146 71.4596 42.3536 71.4435L54.9614 66.3519C55.0351 66.3154 55.1165 66.2969 55.1987 66.298H71.733C72.0372 66.2736 72.3298 66.1706 72.5818 65.9991C72.8337 65.8276 73.0363 65.5936 73.1695 65.3203L83.2166 43.8852C83.4706 43.3425 83.2416 42.9075 82.7003 42.9075H66.5533C66.2826 42.9075 66.1619 42.6962 66.2868 42.4228L73.54 26.9493C73.6328 26.7753 73.6622 26.5748 73.6233 26.3817C78.4732 28.8083 82.504 32.5931 85.2196 37.27C87.9353 41.947 89.2171 47.312 88.9073 52.7045C88.5976 58.097 86.7098 63.2818 83.4763 67.6204C80.2428 71.9591 75.8049 75.2622 70.7087 77.1233H70.692Z" fill="#C10E34"/>
<path d="M30.5827 28.0719C30.5827 28.0719 25.9401 25.4247 25.7527 21.8577C25.5654 18.2907 33.6639 13.3193 33.6639 13.3193C33.6639 13.3193 25.7736 15.2788 24.3954 13.5305C23.0172 11.7823 24.3954 8.31056 24.3954 8.31056C24.3954 8.31056 21.564 12.557 18.1498 11.3266C14.7355 10.0961 13.8236 0 13.8236 0C13.8236 0 14.6814 10.8253 12.0749 11.7657C9.46835 12.7061 7.28655 10.6264 7.28655 10.6264C7.28655 10.6264 9.65156 12.6025 9.07279 16.3643C8.49403 20.126 0 20.4325 0 20.4325C0 20.4325 8.0735 19.8111 8.89375 24.1611C9.57661 27.8607 6.87017 30.3339 6.87017 30.3339C6.87017 30.3339 9.65572 27.0818 12.4912 28.3744C14.7979 29.4349 13.7154 38.8848 13.7154 38.8848C13.7154 38.8848 15.1394 30.1848 17.7084 30.1144C20.2774 30.0439 20.8187 34.1702 20.8187 34.1702C20.8187 34.1702 20.1109 28.5567 22.4842 27.2889C25.5404 25.6857 30.5827 28.0719 30.5827 28.0719Z" fill="#F7931E"/>
<path d="M28.8173 21.1285C28.8173 21.1285 23.0255 21.0208 22.4301 23.0425C21.8347 25.0642 25.3988 28.7969 25.3988 28.7969C25.3988 28.7969 21.6764 24.6541 19.8777 25.6069C18.9617 26.0999 19.224 31.9994 19.224 31.9994C19.224 31.9994 18.8992 27.0279 17.038 26.8208C15.1768 26.6137 13.2907 31.5105 13.2907 31.5105C13.2907 31.5105 14.7896 26.1911 13.2032 24.9897C11.6168 23.7882 7.07835 26.3527 7.07835 26.3527C7.07835 26.3527 11.9749 23.2331 11.6585 21.7541C11.2421 20.0389 6.66198 19.8857 6.66198 19.8857C6.66198 19.8857 11.8875 20.2254 11.8875 18.0007C11.8875 15.776 6.27475 13.8371 6.27475 13.8371C6.27475 13.8371 11.571 16.0535 12.7244 14.384C13.8777 12.7144 11.621 7.8714 11.621 7.8714C11.621 7.8714 14.4773 14.4088 16.6175 13.398C18.7577 12.3871 20.2857 7.06769 20.2857 7.06769C20.2857 7.06769 18.4828 14.0691 20.3524 15.4777C21.8846 16.6377 26.8187 12.5445 26.8187 12.5445C26.8187 12.5445 21.8638 16.646 22.4842 18.5392C23.1046 20.4325 28.8173 21.1285 28.8173 21.1285Z" fill="#FFDD0B"/>
<path d="M22.6091 22.5744C22.6091 22.5744 19.8069 21.4848 19.1824 22.1601C18.5578 22.8354 21.7056 27.8358 21.7056 27.8358C21.7056 27.8358 18.791 23.6598 17.85 23.5479C16.909 23.4361 16.2594 27.2061 16.2594 27.2061C16.2594 27.2061 16.5092 23.9249 16.0138 23.4775C15.5183 23.0301 11.571 27.0321 11.571 27.0321C11.571 27.0321 15.3559 22.7401 14.6356 21.4848C13.9152 20.2295 10.7799 20.7142 10.7799 20.7142C10.7799 20.7142 14.7063 20.3455 14.1817 18.9618C13.6571 17.5781 11.6835 17.3917 11.6835 17.3917C11.6835 17.3917 14.0984 17.9261 14.6189 16.5341C15.1394 15.1421 11.4836 10.8418 11.4836 10.8418C11.4836 10.8418 15.7098 15.8837 16.7799 15.4942C17.85 15.1048 17.6668 12.3457 17.6668 12.3457C17.6668 12.3457 17.7875 16.356 18.7535 16.9277C19.7195 17.4994 21.5141 15.1877 21.5141 15.1877C21.5141 15.1877 19.6862 17.8805 20.0068 18.7837C20.3274 19.6868 23.7542 19.3802 23.7542 19.3802C23.7542 19.3802 20.1692 19.6412 20.0401 20.3745C19.911 21.1078 22.6091 22.5744 22.6091 22.5744Z" fill="white"/>
<path d="M29.5001 25.2714C29.5001 25.2714 27.4516 24.0285 27.5723 23.1129C27.6931 22.1974 31.7361 22.4459 31.7361 22.4459C31.7361 22.4459 28.4925 22.4915 28.2968 23.3201C28.1011 24.1487 29.5001 25.2714 29.5001 25.2714Z" fill="#F7931E"/>
<path d="M30.6035 19.8608C30.6035 19.8608 28.8631 20.3372 28.684 19.082C28.505 17.8267 33.3099 14.8645 33.3099 14.8645C33.3099 14.8645 29.1462 17.9882 29.2378 18.9245C29.3294 19.8608 30.6035 19.8608 30.6035 19.8608Z" fill="#F7931E"/>
<path d="M27.031 10.411C27.031 10.411 25.4363 12.7641 24.8367 11.9687C24.2371 11.1732 25.6695 6.99725 25.6695 6.99725C25.6695 6.99725 24.6493 11.1401 25.2864 11.4467C25.9234 11.7532 27.031 10.411 27.031 10.411Z" fill="#FFDD0B"/>
<path d="M12.0749 33.5281C12.0749 33.5281 12.587 29.7995 10.884 29.4349C9.18105 29.0704 7.66962 33.1428 7.66962 33.1428C7.66962 33.1428 9.53497 29.9031 10.8257 30.1641C12.1165 30.4251 12.0749 33.5281 12.0749 33.5281Z" fill="#F7931E"/>
<path d="M22.53 33.5571C22.53 33.5571 21.4183 30.7772 22.2719 29.6131C23.1254 28.4489 25.0366 30.2014 25.0366 30.2014C25.0366 30.2014 23.1129 29.3106 22.7424 30.2014C22.3718 31.0921 22.53 33.5571 22.53 33.5571Z" fill="#FFDD0B"/>
<path d="M3.58498 18.7961C3.58498 18.7961 7.46975 18.7381 7.74872 17.0768C8.02769 15.4155 4.93403 14.1768 4.93403 14.1768C4.93403 14.1768 6.7286 15.5605 6.79522 16.5962C6.86184 17.632 5.16303 18.357 3.58498 18.7961Z" fill="#FFDD0B"/>
<path d="M26.0026 27.8855C26.9721 28.6362 28.119 29.1269 29.3336 29.3107C28.3069 28.6617 27.1823 28.1805 26.0026 27.8855Z" fill="#F7931E"/>
<path d="M17.6834 31.5934C17.6834 31.5934 18.0748 35.3551 17.1088 37.6875C17.1088 37.6999 16.7674 35.4131 17.6834 31.5934Z" fill="#F7931E"/>
<path d="M6.43298 23.0508C5.10725 23.6502 3.71736 24.0977 2.29005 24.3848C2.29005 24.3848 3.4559 23.6142 6.43298 23.0508Z" fill="#F7931E"/>
<path d="M6.5579 24.9772C6.02205 25.6136 5.32266 26.0932 4.53432 26.3651C5.03147 25.6879 5.7449 25.1986 6.5579 24.9772Z" fill="#F7931E"/>
<path d="M10.63 10.411C9.46096 9.4064 8.66356 8.04128 8.36496 6.53329C8.36496 6.53329 10.2345 8.55915 10.63 10.411Z" fill="#F7931E"/>
<path d="M12.7744 7.07184C12.7744 7.07184 13.2782 5.1537 13.0575 4.00613C13.0575 4.00613 12.5495 5.87456 12.7744 7.07184Z" fill="#F7931E"/>
<path d="M18.2205 9.37527C18.5527 8.23595 18.7044 7.05208 18.6702 5.86627C18.6702 5.86627 17.7792 8.04955 18.2205 9.37527Z" fill="#F7931E"/>
<path d="M61.1029 79C76.51 79 89 66.5727 89 51.2429C89 35.9131 76.51 23.4858 61.1029 23.4858C45.6958 23.4858 33.2058 35.9131 33.2058 51.2429C33.2058 66.5727 45.6958 79 61.1029 79Z" fill="#C10E34"/>
<path d="M54.3474 55.6705L58.0155 43.2273H61.7281L56.0925 59.7727H52.6133L47 43.2273H50.7015L54.3474 55.6705Z" fill="white"/>
<path d="M71.6542 55.4318C71.6542 54.7879 71.4319 54.2955 70.9873 53.9545C70.5427 53.6061 69.7424 53.2424 68.5863 52.8636C67.4303 52.4773 66.5152 52.0985 65.8408 51.7273C64.003 50.7121 63.0842 49.3447 63.0842 47.625C63.0842 46.7311 63.3287 45.9356 63.8178 45.2386C64.3143 44.5341 65.022 43.9848 65.9408 43.5909C66.8671 43.197 67.9046 43 69.0532 43C70.2092 43 71.2392 43.2159 72.1433 43.6477C73.0474 44.072 73.7477 44.6742 74.2441 45.4545C74.748 46.2348 75 47.1212 75 48.1136H71.6653C71.6653 47.3561 71.4319 46.7689 70.9651 46.3523C70.4982 45.928 69.8424 45.7159 68.9976 45.7159C68.1825 45.7159 67.5489 45.8939 67.0969 46.25C66.6448 46.5985 66.4188 47.0606 66.4188 47.6364C66.4188 48.1742 66.6819 48.625 67.208 48.9886C67.7416 49.3523 68.5234 49.6932 69.5534 50.0114C71.4504 50.5947 72.8325 51.3182 73.6995 52.1818C74.5665 53.0455 75 54.1212 75 55.4091C75 56.8409 74.4702 57.9659 73.4105 58.7841C72.3508 59.5947 70.9243 60 69.131 60C67.8861 60 66.7523 59.7689 65.7297 59.3068C64.707 58.8371 63.9252 58.197 63.3843 57.3864C62.8507 56.5758 62.584 55.6364 62.584 54.5682H65.9297C65.9297 56.3939 66.9968 57.3068 69.131 57.3068C69.9239 57.3068 70.5427 57.1439 70.9873 56.8182C71.4319 56.4848 71.6542 56.0227 71.6542 55.4318Z" fill="white"/>
</svg>
