<svg width="14" height="14" viewBox="0 0 14 14" fill="none" xmlns="http://www.w3.org/2000/svg">
<path d="M7 1C3.68633 1 1 3.68633 1 7C1 10.3137 3.68633 13 7 13C10.3137 13 13 10.3137 13 7C12.9963 3.68789 10.3121 1.00371 7 1ZM12.1892 9.10195L10.4828 9.39639C10.6781 8.68008 10.7836 7.94229 10.7968 7.2H12.595C12.5725 7.85293 12.4351 8.49678 12.1892 9.10195ZM1.40498 7.2H3.20322C3.21641 7.94229 3.32188 8.68008 3.51719 9.39639L1.81084 9.10195C1.56494 8.49678 1.42754 7.85293 1.40498 7.2ZM1.81084 4.89805L3.51719 4.60361C3.32188 5.31992 3.21641 6.05771 3.20322 6.8H1.40498C1.42754 6.14707 1.56494 5.50322 1.81084 4.89805ZM7.2 4.21123C7.91865 4.22041 8.63555 4.28584 9.34404 4.40703L10.05 4.52881C10.2669 5.26689 10.3836 6.03076 10.397 6.8H7.2V4.21123ZM9.41221 4.01279C8.68125 3.88789 7.9415 3.82041 7.2 3.81123V1.41123C8.34658 1.52139 9.34258 2.57119 9.90703 4.09902L9.41221 4.01279ZM6.8 3.81123C6.0585 3.82041 5.31895 3.88789 4.58799 4.01279L4.09297 4.09844C4.65742 2.57021 5.65342 1.52002 6.8 1.41035V3.81123ZM4.65615 4.40703C5.36455 4.28584 6.08135 4.22041 6.8 4.21123V6.8H3.60303C3.61641 6.03076 3.73311 5.26689 3.95 4.52881L4.65615 4.40703ZM3.60303 7.2H6.8V9.78877C6.08135 9.77959 5.36445 9.71416 4.65596 9.59297L3.95 9.47119C3.73311 8.73311 3.61641 7.96924 3.60303 7.2ZM4.58779 9.98721C5.31875 10.1123 6.0584 10.1801 6.8 10.1898V12.5898C5.65342 12.4796 4.65742 11.4298 4.09297 9.90195L4.58779 9.98721ZM7.2 10.1898C7.9415 10.1801 8.68105 10.1123 9.41201 9.98721L9.90703 9.90156C9.34258 11.4298 8.34658 12.48 7.2 12.5896V10.1898ZM9.34385 9.59297C8.63545 9.71416 7.91865 9.77959 7.2 9.78877V7.2H10.397C10.3836 7.96924 10.2669 8.73311 10.05 9.47119L9.34385 9.59297ZM10.7968 6.8C10.7836 6.05771 10.6781 5.31992 10.4828 4.60361L12.1892 4.89805C12.4351 5.50322 12.5725 6.14707 12.595 6.8H10.7968ZM11.9868 4.45723L10.3512 4.175C10.0571 3.21572 9.50703 2.35479 8.75996 1.68496C10.1569 2.15117 11.3154 3.14639 11.9868 4.45723ZM5.24004 1.68496C4.49297 2.35479 3.94287 3.21572 3.64883 4.175L2.01318 4.45723C2.68457 3.14639 3.84307 2.15117 5.24004 1.68496ZM2.01318 9.54277L3.64883 9.825C3.94287 10.7843 4.49297 11.6452 5.24004 12.315C3.84307 11.8488 2.68457 10.8536 2.01318 9.54277ZM8.75996 12.315C9.50703 11.6452 10.0571 10.7843 10.3512 9.825L11.9868 9.54277C11.3154 10.8536 10.1569 11.8488 8.75996 12.315Z" fill="#BE1338" stroke="#BE1338" stroke-width="0.2"/>
</svg>
