<svg width="37" height="24" viewBox="0 0 37 24" fill="none" xmlns="http://www.w3.org/2000/svg">
    <path opacity="0.4" d="M23.4966 2.5415H13.5195V21.3854H23.4966V2.5415Z" fill="white"/>
    <path d="M14.1216 12.0084C14.1216 8.3118 15.7558 4.88564 18.5081 2.54142C13.5195 -1.51587 6.38078 -0.614235 2.42436 4.525C-1.44604 9.7544 -0.585943 17.2379 4.31657 21.3853C8.44501 24.8115 14.2936 24.8115 18.4221 21.3853C15.7558 19.1313 14.1216 15.7051 14.1216 12.0084Z" fill="white"/>
    <path d="M37 12.0085C37 18.5903 31.9255 24.0001 25.5608 24.0001C22.9805 24.0001 20.4863 23.0984 18.5081 21.4755C23.4966 17.4182 24.3567 9.84465 20.4003 4.70542C19.7982 3.98412 19.1961 3.26282 18.5081 2.72184C23.4966 -1.33545 30.6353 -0.433816 34.5057 4.70542C36.1399 6.68898 37 9.30366 37 12.0085Z" fill="#AEB3C7"/>
</svg>
