<svg width="13" height="14" viewBox="0 0 13 14" fill="none" xmlns="http://www.w3.org/2000/svg">
<path d="M12.3283 5.78647L7.18825 0.533136C7.12628 0.470651 7.05255 0.421055 6.97131 0.387209C6.89007 0.353363 6.80293 0.335938 6.71492 0.335938C6.62691 0.335937 6.53978 0.353363 6.45854 0.387209C6.3773 0.421055 6.30356 0.470651 6.24159 0.533136L1.10159 5.79314C0.977212 5.91852 0.878984 6.06735 0.812606 6.23101C0.746228 6.39466 0.713024 6.56988 0.714921 6.74647V12.3331C0.714404 12.6744 0.844769 13.0029 1.07917 13.2509C1.31357 13.499 1.63416 13.6477 1.97492 13.6665H11.4549C11.7957 13.6477 12.1163 13.499 12.3507 13.2509C12.5851 13.0029 12.7154 12.6744 12.7149 12.3331V6.74647C12.7154 6.38843 12.5768 6.04419 12.3283 5.78647ZM5.38159 12.3331V8.33314H8.04825V12.3331H5.38159ZM11.3816 12.3331H9.38159V7.66647C9.38159 7.48966 9.31135 7.32009 9.18633 7.19507C9.0613 7.07004 8.89173 6.9998 8.71492 6.9998H4.71492C4.53811 6.9998 4.36854 7.07004 4.24352 7.19507C4.11849 7.32009 4.04825 7.48966 4.04825 7.66647V12.3331H2.04825V6.7198L6.71492 1.95314L11.3816 6.74647V12.3331Z" fill="#A1AFD3"/>
</svg>
