<svg width="15" height="14" viewBox="0 0 15 14" fill="none" xmlns="http://www.w3.org/2000/svg">
<path d="M13.9788 0H3.7687C3.4501 0 3.19185 0.258221 3.19185 0.576855V6.01841H2.17278C0.974663 6.01841 0 6.99327 0 8.19119V11.4023C0 12.6004 0.974663 13.5751 2.17278 13.5751C2.27083 13.5751 2.36738 13.5685 2.46179 13.5558H11.9791C13.3997 13.5558 14.5557 12.4 14.5557 10.9793V0.576855C14.5557 0.258221 14.2975 0 13.9788 0ZM3.19188 11.4023C3.19188 11.8966 2.83788 12.31 2.37008 12.4021H2.17281V12.4213C1.61076 12.4213 1.15371 11.9641 1.15371 11.4023V8.19119C1.15371 7.62934 1.61096 7.17209 2.17281 7.17209H3.1919V11.4023H3.19188ZM13.402 10.9793C13.402 11.7505 12.7506 12.4021 11.9791 12.4021H4.10155C4.25748 12.1027 4.34556 11.7626 4.34556 11.4023V1.15368H13.402V10.9793Z" fill="#A1AFD3"/>
</svg>
