<svg width="13" height="8" viewBox="0 0 13 8" fill="none" xmlns="http://www.w3.org/2000/svg">
<path d="M12.5503 1.66193C12.4086 1.5472 12.2086 1.52302 12.0409 1.6004L9.47581 2.7844L7.06897 0.153245C6.97995 0.0559112 6.85074 0 6.71485 0C6.57896 0 6.44977 0.0559112 6.36073 0.153245L3.95389 2.78438L1.38879 1.60038C1.22115 1.52302 1.02113 1.54718 0.879333 1.66191C0.737536 1.77664 0.680911 1.96016 0.735122 2.12927L2.51637 7.68482C2.5764 7.87204 2.75848 8 2.96485 8H10.4648C10.6712 8 10.8533 7.87204 10.9133 7.68484L12.6946 2.12929C12.7488 1.96018 12.6922 1.77667 12.5503 1.66193ZM10.1174 7.11111H3.31226L1.94466 2.8456L3.86705 3.73296C4.05793 3.82104 4.28729 3.77656 4.42634 3.62456L6.71485 1.12278L9.00338 3.62456C9.14241 3.77658 9.37184 3.82102 9.56265 3.73296L11.485 2.8456L10.1174 7.11111Z" fill="#BE1338"/>
</svg>
