<svg xmlns="http://www.w3.org/2000/svg" viewBox="0 0 213.64 190.26"><defs><style>.cls-1{fill:#db164a;}.cls-2{fill:#c10e34;}.cls-3{fill:#f7931e;}.cls-4{fill:#ffdd0b;}.cls-5{fill:#fff;}</style></defs><g id="Layer_2" data-name="Layer 2"><g id="Layer_1-2" data-name="Layer 1"><path class="cls-1" d="M57.77,46.29a29.35,29.35,0,0,0,8.59,6.46A14.77,14.77,0,0,0,72,54.14a15.45,15.45,0,0,0,5.73-.9,37.61,37.61,0,0,0,9.13-5.31,88.47,88.47,0,0,1,8-5.45A27.65,27.65,0,0,1,99,40.55a16.39,16.39,0,0,1,4.23-.95A10.37,10.37,0,0,1,110.83,42a21.07,21.07,0,0,1,5.33,7.1,37.15,37.15,0,0,1,1.78,4.31,38.15,38.15,0,0,1,1.26,4.47l4.5-.86c-.2-1-.41-1.75-.64-2.6s-.5-1.67-.79-2.5a40,40,0,0,0-2-4.85,25.62,25.62,0,0,0-6.55-8.64,15.92,15.92,0,0,0-5.07-2.77,15.17,15.17,0,0,0-5.78-.64A25.29,25.29,0,0,0,92.58,38.5a91.16,91.16,0,0,0-8.42,5.73,33.25,33.25,0,0,1-8,4.68,10.06,10.06,0,0,1-8-.34,25,25,0,0,1-7.17-5.45Z"/><path class="cls-2" d="M57.77,46.29a29.35,29.35,0,0,0,8.59,6.46A14.77,14.77,0,0,0,72,54.14a15.45,15.45,0,0,0,5.73-.9,37.61,37.61,0,0,0,9.13-5.31,88.47,88.47,0,0,1,8-5.45A27.65,27.65,0,0,1,99,40.55a16.39,16.39,0,0,1,4.23-.95A10.37,10.37,0,0,1,110.83,42a21.07,21.07,0,0,1,5.33,7.1,37.15,37.15,0,0,1,1.78,4.31,38.15,38.15,0,0,1,1.26,4.47l1.45-.28a40.58,40.58,0,0,0-3.17-9.16,22.45,22.45,0,0,0-5.72-7.59,12.65,12.65,0,0,0-4.07-2.23,11.84,11.84,0,0,0-4.59-.5,22.29,22.29,0,0,0-9,3.07A89.08,89.08,0,0,0,86,46.74a36.35,36.35,0,0,1-8.75,5.1,13.76,13.76,0,0,1-5.18.82A13.3,13.3,0,0,1,67,51.4a28.14,28.14,0,0,1-8.13-6.13Z"/><path class="cls-2" d="M122.65,57.23a42.43,42.43,0,0,0-3.34-9.68A24.58,24.58,0,0,0,113,39.27a14.61,14.61,0,0,0-4.73-2.58,14,14,0,0,0-5.36-.6,24.18,24.18,0,0,0-9.84,3.34,89.25,89.25,0,0,0-8.32,5.66,34.35,34.35,0,0,1-8.24,4.83,11.14,11.14,0,0,1-8.75-.38,26,26,0,0,1-7.5-5.68l-.65.62a26.86,26.86,0,0,0,7.78,5.89,12.26,12.26,0,0,0,4.67,1.16,12.66,12.66,0,0,0,4.75-.76,35.29,35.29,0,0,0,8.47-5,88.3,88.3,0,0,1,8.23-5.61A23.5,23.5,0,0,1,103,37a13.18,13.18,0,0,1,5,.56A13.6,13.6,0,0,1,112.47,40a23.68,23.68,0,0,1,6,8,41.45,41.45,0,0,1,3.26,9.45Z"/><rect class="cls-2" x="110.28" y="48.95" width="24.11" height="15.56" transform="translate(-12.05 45.58) rotate(-20.14)"/><path class="cls-2" d="M153.18,115.34a2.1,2.1,0,0,1,1.72-1.19h11.75c.65,0,.94.54.63,1.19l-15.35,32.92a2.14,2.14,0,0,1-1.74,1.18H138.44c-.65,0-.94-.53-.63-1.18Z"/><path class="cls-2" d="M142.92,76.8,99.29,170.34a.42.42,0,0,0,0,.1,66.86,66.86,0,0,1,75.64-107.7,3.23,3.23,0,0,0-.68.2l-29,11.75A4.41,4.41,0,0,0,142.92,76.8Z"/><path class="cls-2" d="M169.78,186.16a66.84,66.84,0,0,1-68.35-13.62,1.61,1.61,0,0,0,.29-.09L132,160.16a1.24,1.24,0,0,1,.57-.13h39.71a4.21,4.21,0,0,0,3.45-2.36l24.13-51.74c.61-1.31.06-2.36-1.24-2.36H159.84c-.65,0-.94-.51-.64-1.17l17.42-37.35a2.06,2.06,0,0,0,.2-1.37,66.85,66.85,0,0,1-7,122.48Z"/><path class="cls-3" d="M73.45,67.76s-11.15-6.39-11.6-15,19-20.61,19-20.61-18.95,4.73-22.26.51,0-12.6,0-12.6-6.8,10.25-15,7.28S33.2,0,33.2,0,35.26,26.13,29,28.4s-11.5-2.75-11.5-2.75,5.68,4.77,4.29,13.85S0,49.32,0,49.32s19.39-1.5,21.36,9C23,67.25,16.5,73.22,16.5,73.22S23.19,65.37,30,68.49c5.54,2.56,2.94,25.37,2.94,25.37s3.42-21,9.59-21.17S50,82.48,50,82.48s-1.7-13.55,4-16.61C61.34,62,73.45,67.76,73.45,67.76Z"/><path class="cls-4" d="M69.21,51s-13.91-.26-15.34,4.62S61,69.51,61,69.51s-8.94-10-13.26-7.7C45.54,63,46.17,77.24,46.17,77.24s-.78-12-5.25-12.5-9,11.32-9,11.32,3.6-12.84-.21-15.74S17,63.61,17,63.61s11.76-7.53,11-11.1C27,48.37,16,48,16,48s12.55.82,12.55-4.55S15.07,33.4,15.07,33.4s12.72,5.35,15.49,1.32S27.91,19,27.91,19s6.86,15.78,12,13.34,8.81-15.28,8.81-15.28-4.33,16.9.16,20.3c3.68,2.8,15.53-7.08,15.53-7.08S52.51,40.18,54,44.75,69.21,51,69.21,51Z"/><path class="cls-5" d="M54.3,54.49s-6.73-2.63-8.23-1,6.06,13.7,6.06,13.7-7-10.08-9.26-10.35-3.82,8.83-3.82,8.83.6-7.92-.59-9-10.67,8.58-10.67,8.58,9.09-10.36,7.36-13.39S25.89,50,25.89,50s9.43-.89,8.17-4.23-6-3.79-6-3.79,5.8,1.29,7.05-2.07-7.53-13.74-7.53-13.74S37.73,38.34,40.3,37.4s2.13-7.6,2.13-7.6.29,9.68,2.61,11.06,6.63-4.2,6.63-4.2-4.39,6.5-3.62,8.68,9,1.44,9,1.44-8.61.63-8.92,2.4S54.3,54.49,54.3,54.49Z"/><path class="cls-3" d="M70.85,61s-4.92-3-4.63-5.21,10-1.61,10-1.61-7.79.11-8.26,2.11S70.85,61,70.85,61Z"/><path class="cls-3" d="M73.5,47.94s-4.18,1.15-4.61-1.88S80,35.88,80,35.88s-10,7.54-9.78,9.8S73.5,47.94,73.5,47.94Z"/><path class="cls-4" d="M64.92,25.13s-3.83,5.68-5.27,3.76,2-12,2-12-2.45,10-.92,10.74S64.92,25.13,64.92,25.13Z"/><path class="cls-3" d="M29,80.93s1.23-9-2.86-9.88S18.42,80,18.42,80,22.9,72.18,26,72.81,29,80.93,29,80.93Z"/><path class="cls-4" d="M54.11,81s-2.67-6.71-.62-9.52,6.64,1.42,6.64,1.42-4.62-2.15-5.51,0S54.11,81,54.11,81Z"/><path class="cls-4" d="M8.61,45.37s9.33-.14,10-4.15-6.76-7-6.76-7,4.31,3.34,4.47,5.84S12.4,44.31,8.61,45.37Z"/><path class="cls-3" d="M62.45,67.31a17.25,17.25,0,0,0,8,3.44A27.35,27.35,0,0,0,62.45,67.31Z"/><path class="cls-3" d="M42.47,76.26s.94,9.08-1.38,14.71C41.09,91,40.27,85.48,42.47,76.26Z"/><path class="cls-3" d="M15.45,55.64A46.16,46.16,0,0,1,5.5,58.86S8.3,57,15.45,55.64Z"/><path class="cls-3" d="M15.75,60.29a11.07,11.07,0,0,1-4.86,3.35A8.94,8.94,0,0,1,15.75,60.29Z"/><path class="cls-3" d="M25.53,25.13a16.61,16.61,0,0,1-5.44-9.36S24.58,20.66,25.53,25.13Z"/><path class="cls-3" d="M30.68,17.07s1.21-4.63.68-7.4C31.36,9.67,30.14,14.18,30.68,17.07Z"/><path class="cls-3" d="M43.76,22.63a27.56,27.56,0,0,0,1.08-8.47S42.7,19.43,43.76,22.63Z"/></g></g></svg>